<?xml version="1.0" encoding="UTF-8"?>
<svg id="Capa_2" data-name="Capa 2" xmlns="http://www.w3.org/2000/svg" viewBox="0 0 298.49 84.69">
  <defs>
    <style>
      .cls-1 {
        fill: #fff;
        stroke-width: .75px;
      }

      .cls-1, .cls-2 {
        stroke: #fff;
        stroke-miterlimit: 10;
      }

      .cls-2 {
        fill: none;
      }
    </style>
  </defs>
  <g id="Capa_1-2" data-name="Capa 1">
    <g>
      <path class="cls-1" d="M295.71,24.25c-2.26-2.08-5.34-2.66-7.75-2.85.08-.39.07-.76-.04-1.12-.6-2.15-3.3-3.24-8.02-3.24-.68,0-1.39.02-2.13.07-1.6-4.19-3.1-5.29-3.44-5.49-1.48-6.01-4.44-9.55-8.82-10.53-.53-.12-1.06-.18-1.58-.18-3.56,0-6.4,2.71-6.59,6.3-.03.51-.02,1.01.03,1.51-.07,0-.14,0-.21,0-4.14,0-7.74,1.09-8.63,1.39-.17-.03-.43-.06-.74-.06-.76,0-1.81.19-2.77,1-1.28-.84-4.72-3.05-6.67-4.02-.07-.03-.14-.06-.21-.08-.09-.11-.2-.21-.28-.28-.44-.39-.97-.59-1.54-.59-.73,0-1.48.34-2.25,1-.28.24-.55.54-.82.9l-.42-.12c-.6-.18-1.47-.44-2.53-.75-1.94-.57-4.92-1.44-8.13-2.34-8.27-2.34-13.88-3.77-16.67-4.25-.47-.08-.95-.12-1.41-.12-3.77,0-6.48,2.66-7.76,5.15-1.05,2.04-1.21,4-.4,5.01,1.23,1.54,8.21,7.11,13.31,11.17,1.51,1.21,2.85,2.27,3.73,2.99-.24.77-.2,2.03-.11,3.01-1.4.28-2.34,1.29-2.38,1.34,0,0-.02.02-.03.03-.21.1-.69.36-1.61.85-2.36,1.26-6.74,3.6-9.5,4.74-1.27.53-2.36.84-3.31.95.2-2.35.57-8.64-1.04-10.54-.81-.96-2.17-1.47-3.92-1.47-.58,0-1.2.06-1.8.17-2.49.46-3.5,2.11-4.48,3.7-.03.04-.05.09-.08.13-1.52-1.4-2.32-2.1-2.7-2.36-.76-.53-1.67-.81-2.63-.81-.53,0-1.08.09-1.54.24-.88.3-4.27,2.35-5.04,2.99-.89.75-1.6,1.61-.49,3.89.93,1.91,4.52,9.48,5.94,12.56-1.94,1.97-4.47,6.83-5.87,9.53-.23.43-.42.81-.56,1.07-.67,1.24-.71,2.56-.09,3.53.74,1.17,2.3,1.76,4.65,1.76.43,0,.88-.02,1.36-.06,2.07-.17,4.53-1.6,7.3-4.27.24.35.5.66.77.95.76.81,1.49,1.12,2.58,1.12.19,0,.39,0,.64-.03,5.69-.41,10.93-.93,16.01-1.59l.25-.03c1.25-.16,2.52-.32,3.79-.55-3.58,5.35-8.11,12.12-11.05,16.59,0,.01-.02.02-.02.04-.77,1.36-1.48,4.5,1.35,6.71.02.02.04.03.06.05.27.21.56.4.86.57,1.38.78,3.02,1.18,4.88,1.18,3.78,0,8.22-1.71,11.57-4.45,3.44-2.81,16.4-15.19,25.03-25.18,1.42-.26,7.81-1.44,13.53-2.64-.23.59-.53,1.31-.81,1.99-.06,0-.12.01-.18.02-2.45.26-4.42,1.52-5.7,3.66-.88,1.47-1.14,2.88-1.18,3.1-.46,1.82,0,3.69,1.28,5.26,1.7,2.08,4.63,3.42,7.46,3.42,2.2,0,4.1-.82,5.35-2.32.17-.2.33-.43.48-.67,1.54-1.82,2.13-3.86,1.71-5.89-.43-2.09-1.92-4.02-4.03-5.28.61-2.03,1.27-3.87,1.55-4.61,1.44-.35,2.52-.64,3.27-.89,1.11.93,2.5,1.44,3.96,1.44.19,0,.39,0,.58-.03,3.89-.36,6.02-4.17,6.58-5.32.26-.53.48-1.09.67-1.69.51-.3,1.57-1.04,2.55-2.4,1.03-1.43,2.16-3.83,2.14-7.46,1.92,1.66,4.57,3.33,7.81,3.79.47.07.97.1,1.47.1,2.3,0,5.34-.76,6.95-2.91,1.88-2.5.6-5.56-1.49-7.49ZM276.15,39.52c.49-2.06.54-4.23.49-6.32-.01-.47-.03-.89-.04-1.28.22-.07.45-.15.67-.25,1.5-.66,2.14-1.79,2.4-2.73.06.07.13.14.19.21.62,6.48-2.38,9.41-3.71,10.37ZM248.49,57.16c.6-1.95,2.79-2.97,4.58-3.08,1.09-.07,2.24.08,3.33.45,1.7.57,3.96,2.12,4.89,4.17.51,1.14.53,2.24.05,3.27-.16.35-.37.68-.62.98-2.13,2.55-5.93,2.29-8.57.97-2.3-1.15-4.63-3.61-3.67-6.76ZM262.28,60.63c.03-.71-.12-1.43-.44-2.15-1-2.21-3.42-3.88-5.24-4.49-1.17-.39-2.41-.56-3.57-.48-1.27.08-2.73.59-3.79,1.52.79-1.53,2.31-3.3,5.18-3.61,2.87-.31,6.15,1.42,7.62,4.02.6,1.05,1.28,2.96.24,5.18ZM198.89,72.68c6.07-9.24,18.96-28.37,19.09-28.56h0c1.08-1.61,4.25-3.18,8.91-4.45-2.48,4.1-17.07,27.94-27.09,38.33-2.61-2.24-.98-5.19-.92-5.32ZM186.56,55.98c-.36-.39-.7-.84-1.01-1.36,0,0,0,0,0,0,4.2-4.28,7.85-10,8.49-11.37.32-.67.33-1.22.04-1.64-.49-.71-1.67-.69-1.72-.69-5.25,0-12.36,2.58-12.72,2.71-.13.04-.27.12-.41.21-1.39-3.01-5.06-10.75-6-12.68-.88-1.8-.38-2.21.24-2.74.72-.61,4.02-2.57,4.71-2.81.29-.1,1.83-.55,3.24.43.62.43,2.85,2.51,5,4.52,2.28,2.13,4.63,4.33,5.5,4.97,2.01,1.49,4.27,1.5,7.82.04,2.81-1.16,7.22-3.52,9.59-4.78.65-.35,1.15-.61,1.42-.75.07.82.28,2.46.88,3.82.64,1.47,2.25,1.73,3.65,1.73.45,0,.87-.03,1.24-.05h.21c1.42-.1,12.25-2.06,22.64-6.18.27-.09,6.72-2.32,7.23-5.57.13-.86.24-1.9.35-3,.29-2.93.65-6.56,1.86-9.76.68-.23,3.97-1.24,7.76-1.34-.35,2.42-2.16,17.76,5.88,30-.09,1.66.23,3.23.97,4.58.2.37.45.71.72,1.02-4.2,1.38-18.48,4.05-22.03,4.71,2.7-3.17,4.94-6.08,6.28-8.36.03-.05.65-1.3.02-2.56-.5-1.01-1.64-1.7-3.39-2.08-2.49-.53-8.52-.05-14.34,1.15-.84.17-1.97.42-3.23.75-.02,0-.03,0-.05.01-3.68.97-8.41,2.6-9.94,4.87-.07.1-3.18,4.71-7.05,10.48-1.73.4-3.54.64-5.28.86l-.25.03c-5.07.65-10.29,1.17-15.95,1.58-1.14.08-1.68-.02-2.39-.78ZM179.84,44.17s0,0,0,0c.04-.01,1.88-.68,4.36-1.35l-10,15.83s-.04.08-.04.13c-.71-.2-1.23-.53-1.54-.96-.7-1-.11-2.27.08-2.64.14-.26.33-.63.57-1.08,1.46-2.8,4.88-9.37,6.55-9.92ZM185.05,42.6c2.31-.58,5.02-1.1,7.32-1.1,0,0,.02,0,.03,0,.27,0,.93.07,1.18.43.17.24.14.61-.09,1.08-.98,2.09-9.79,15.48-15.84,15.97-1.14.09-2.11.07-2.9-.07l10.3-16.31ZM194.96,36.08c-1.19-.06-2-.48-2.68-.99-.55-.41-1.73-1.48-3.11-2.76l2-7.73c1.06.01,2.29.24,3.03,1.11,1.48,1.75.9,8.9.76,10.37ZM190.55,24.61l-1.88,7.25c-.6-.55-1.22-1.13-1.83-1.71-.54-.51-1.08-1.01-1.59-1.49.15-.23.29-.46.43-.69.98-1.6,1.75-2.86,3.79-3.24.23-.04.62-.1,1.09-.13ZM197.14,6.18c2.27,1.48,17.33,11.3,21.78,13.96-1.3.64-2.48,1.34-3.19,1.89-1.02.8-1.63,1.55-1.97,2.05-.89-.73-2.29-1.84-3.88-3.12-4.77-3.81-11.99-9.56-13.15-11.02-.54-.67-.34-2.21.4-3.77ZM234.75,7.79c.66-.57,1.25-.81,1.77-.73.32.05.56.23.72.39-.09.06-.17.15-.23.25-.81,1.35-2.75,4.76-3.11,7.32-.46,3.2-.38,6.42,1.37,12.5-.7.27-1.43.55-2.2.83-.37-.93-1.58-4.26-1.69-8.3-.14-4.95,1.41-10.56,3.37-12.25ZM286.93,20.53c.54,1.92-3.27,4.53-7.53,6.59,0,0,0,0,0,0-.6.29-1.21.57-1.82.84-.58.25-1.26.13-1.71-.3-.52-.5-1.3-1.46-2.06-3.16-1.02-2.29-.22-4.38.35-5.43.23-.42.66-.7,1.15-.76.95-.12,2.73-.3,4.62-.3,3.07,0,6.43.48,7,2.52ZM273.27,31.18c-1.22-.53-2.26-1.55-3.05-2.96,0,0,0,0,0,0,0,0,0,0,0,0-.34-.61-.63-1.28-.86-2.02-1.04-3.27-1.01-5.91.09-7.62.64-1.01,1.66-1.66,2.95-1.87,2.27-.38,3.25.45,3.62.95-.27.03-.53.06-.77.09-.69.09-1.29.49-1.6,1.07-.62,1.14-1.48,3.41-.37,5.92.64,1.43,1.37,2.55,2.18,3.34.41.39.95.6,1.51.6.3,0,.59-.06.87-.18.42-.18.9-.4,1.43-.65-.03.79-.33,2.47-2.24,3.31-1.25.55-2.54.56-3.75.04ZM276.66,17.59c-.21-.36-.77-1.1-1.97-1.41-.05-.45-.11-.92-.19-1.45-.1-.68-.21-1.34-.34-1.98.53.52,1.58,1.84,2.7,4.82-.07,0-.13.01-.2.02ZM273.91,14.81c.07.45.12.87.17,1.26-.5-.06-1.1-.05-1.79.07-1.46.25-2.62.99-3.35,2.14-.25.4-.45.84-.6,1.32-6.88-3.29-10.23-7.44-9.97-12.33.09-1.76.94-3.34,2.32-4.34,1.3-.94,2.94-1.26,4.59-.89,4.65,1.04,7.56,5.33,8.63,12.77ZM268.18,20.16c-.36,1.68-.17,3.78.6,6.2.22.7.49,1.34.8,1.92-.91.63-4.36,3.24-6.2,7.55-.41.97-.69,1.95-.83,2.92-7.57-12.13-5.67-27.06-5.38-29.06.25,0,.5,0,.76.01.81,4.09,4.24,7.6,10.25,10.45ZM248.17,11.04c-1.18,3.22-1.54,6.81-1.82,9.71-.11,1.09-.21,2.12-.34,2.96-.46,2.91-6.77,5.09-6.85,5.11-10.3,4.08-21.24,6.05-22.47,6.13h-.21c-1.44.1-3.62.24-4.3-1.32-.67-1.54-.83-3.51-.86-4.02.25-.23,1.03-.91,2.04-1,.05.8.24,2.91.84,3.67.5.64,1.64.93,4.91.4.01,0,.02,0,.03,0,0,0,0,0,0,0,1.48-.24,3.39-.65,5.87-1.27,2.81-.7,5.55-1.57,7.98-2.44,0,0,.01,0,.02,0,0,0,0,0,.01,0,3.88-1.39,6.97-2.79,8.3-3.51,2-1.07,2.02-4.04,2.02-4.3.41-5.23,1.83-8.67,2-9.08,1.02-1.1,2.25-1.11,2.81-1.05ZM219.65,20.43s.04-.02.06-.03c.46-.22.92-.42,1.38-.61-3.69,2.37-4.43,4.39-4.35,5.07.06.56,1.55,5.88,1.96,7.33-2.35.36-3.61.28-4.01-.23-.43-.55-.64-2.27-.71-3.24.01-.04.02-.08.01-.12-.11-.74-.32-2.84-.02-3.65,0-.01.5-1.16,2.16-2.47.75-.59,2.09-1.36,3.53-2.04ZM230.78,20.06c0,.29.02.57.04.86-.29-.18-.7-.43-1.18-.7l1.13-.7c0,.18,0,.37,0,.55ZM230.88,21.64c.32,3.38,1.29,6.06,1.63,6.91-2.34.83-4.96,1.66-7.64,2.32-2.27.56-4.11.97-5.58,1.22-.79-2.8-1.91-6.88-1.95-7.3-.06-.53.88-3.07,6.52-5.9.29-.06.56-.09.78-.09,1.82,0,5.92,2.61,6.26,2.83ZM242.75,21.14s0,.02,0,.03c0,.03.02,2.87-1.72,3.8-.95.51-2.81,1.37-5.21,2.33-1.72-5.96-1.79-9.01-1.33-12.2.36-2.52,2.41-6.08,3.04-7.11.07-.11.22-.16.34-.1,2.05,1.02,5.94,3.55,6.86,4.15-.35.86-1.59,4.16-1.98,9.09ZM230.78,18.82l-1.53.94c-.06.04-.1.1-.12.16-1.46-.8-3.35-1.69-4.51-1.69s-3.17.72-5.06,1.6c-4.02-2.35-20.07-12.82-22.14-14.17.08-.15.17-.3.26-.44.68-1.07,3.25-4.52,7.65-3.76,6.12,1.06,25,6.65,27.79,7.49-1.32,2.31-2.25,6.13-2.34,9.87ZM255.41,50.82c.52-1.24,1.06-2.64,1.24-3.08,1.25-.27,2.46-.54,3.55-.79-.31.86-.97,2.71-1.56,4.7-1.03-.48-2.14-.78-3.23-.83ZM227.72,39.44c.98-.25,2.01-.49,3.1-.71,4.15-.85,8.52-1.35,11.49-1.35,1.07,0,1.96.06,2.59.2,1.55.33,2.56.92,2.98,1.76.5,1,0,2.05,0,2.05-5.62,9.56-27.27,30.42-31.8,34.12-4.15,3.39-10.91,5.66-15.27,3.17-.19-.11-.36-.22-.52-.33,10.64-11.05,26.34-37.08,27.44-38.91ZM263.95,44.01c-1.22-2.21-1.23-5.11-.02-7.95,1.72-4.03,4.99-6.58,5.93-7.26.83,1.36,1.9,2.37,3.15,2.91.67.29,1.36.43,2.06.43.31,0,.62-.03.92-.09.02.35.03.73.04,1.15.07,2.93-.05,6.02-1.35,8.69-.5,1.04-2.41,4.45-5.76,4.76-2.03.19-3.99-.85-4.98-2.65ZM279.82,28.23c.04-.29.04-.52.04-.68,2.65-1.3,6.04-3.25,7.26-5.22,2.51.13,5.63.56,7.89,2.63,1.65,1.51,3,4.05,1.37,6.21-1.55,2.06-4.92,2.78-7.45,2.41-3.19-.46-6.42-2.36-9.11-5.35Z"/>
      <g>
        <path class="cls-2" d="M.5,69c.1-.06.16-.15.22-.24.55-.73,1.15-1.42,1.77-2.09.1-.1.2-.2.31-.28.19-.13.38-.11.57.04.24.2.32.52.19.81-.08.19-.21.35-.35.5-.53.56-1.01,1.17-1.5,1.76-.08.1-.16.19-.28.25-.22.12-.42.09-.61-.08-.13-.12-.18-.3-.34-.39v-.28Z"/>
        <path class="cls-2" d="M38.85,84.19c-.11-.07-.24-.07-.36-.09-.39-.06-.78-.12-1.17-.2-.41-.09-.62-.41-.54-.8.07-.36.31-.55.67-.52.28.03.56.07.84.11.52.08,1.03.17,1.55.16.53-.01.89.61.55,1.09-.06.09-.14.17-.22.25h-1.33Z"/>
        <path class="cls-2" d="M51.28,27.91c.28.14.59.11.88.17.32.07.65.12.98.2.14.03.28.08.4.15.33.2.42.65.2.96-.14.2-.32.31-.57.27-.16-.02-.31-.05-.47-.09-.54-.13-1.08-.23-1.64-.24-.14,0-.28-.03-.42-.06-.52-.14-.7-.76-.33-1.17.06-.07.14-.13.21-.19.25,0,.51,0,.76,0Z"/>
        <path class="cls-2" d="M23.36,54.3c0-.35.13-.58.47-.68.36-.11.73-.19,1.1-.28.21-.05.43-.1.65-.15.19-.04.36-.1.51-.23.35-.3.73-.11.87.25.12.32.18.64-.02.95-.12.18-.16.38-.2.58-.11.52-.22,1.05-.33,1.58-.03.15-.06.31-.12.46-.1.25-.31.38-.55.36-.19-.01-.33-.1-.42-.27-.1-.19-.13-.38-.08-.6.09-.42.17-.84.25-1.25.02-.08.03-.16.04-.23,0-.08-.06-.16-.15-.14-.19.03-.37.07-.56.11-.25.05-.49.13-.74.16-.42.06-.7-.19-.7-.62Z"/>
        <path class="cls-2" d="M53.63,75.21c-.03.12-.05.25-.09.37-.32.9-.68,1.77-1.2,2.57-.06.09-.12.19-.19.27-.25.27-.65.23-.85-.09-.12-.2-.15-.42-.07-.64.03-.09.08-.17.13-.25.44-.75.82-1.53,1.11-2.36.03-.07.05-.15.09-.22.11-.19.27-.32.5-.31.22,0,.38.14.48.34.05.1.06.21.1.32Z"/>
        <path class="cls-2" d="M27.35,74.8c0,.22-.06.36-.16.49-.26.32-.64.31-.87-.04-.09-.13-.15-.28-.21-.42-.35-.83-.62-1.69-.87-2.56-.07-.26-.05-.5.1-.72.23-.33.65-.34.86,0,.07.1.11.23.15.35.25.89.55,1.75.91,2.59.05.11.07.24.09.31Z"/>
        <path class="cls-2" d="M30.68,79.55c0,.23-.04.36-.12.48-.16.24-.45.32-.71.18-.11-.06-.21-.15-.3-.23-.59-.57-1.13-1.19-1.61-1.85-.07-.1-.14-.21-.2-.32-.09-.17-.12-.36-.07-.55.06-.23.2-.39.44-.45.22-.06.41.03.54.2.15.18.28.38.42.57.34.45.74.86,1.14,1.26.1.1.2.2.29.31.11.14.17.3.17.4Z"/>
        <path class="cls-2" d="M84.2,62.72c0,.13-.04.25-.11.36-.22.36-.57.42-.87.12-.19-.19-.36-.4-.53-.61-.4-.49-.8-.98-1.2-1.47-.1-.12-.18-.26-.24-.4-.07-.19-.06-.37.03-.55.21-.39.57-.46.9-.15.15.14.27.31.4.47.46.56.93,1.12,1.39,1.68.14.16.23.34.23.56Z"/>
        <path class="cls-2" d="M31.59,42.24c0,.16-.05.29-.12.42-.15.28-.31.55-.46.82-.27.5-.54,1-.8,1.5-.08.15-.16.31-.29.43-.21.19-.47.19-.68,0-.18-.17-.35-.45-.17-.82.24-.48.47-.96.73-1.43.2-.37.42-.74.64-1.1.06-.11.13-.22.22-.3.23-.23.53-.21.74.03.12.14.17.3.19.46Z"/>
        <path class="cls-2" d="M50.49,80.13c-.02.27-.13.48-.31.64-.64.56-1.32,1.07-2.06,1.5-.03.02-.06.03-.08.04-.35.18-.63.14-.8-.1-.2-.29-.16-.77.1-1,.08-.07.18-.12.28-.18.65-.37,1.23-.82,1.8-1.29.05-.04.09-.08.14-.12.35-.25.72-.15.88.25.03.09.05.18.06.25Z"/>
        <path class="cls-2" d="M71.48,45.56c.15,0,.28.04.39.15.09.09.17.19.24.29.47.67.94,1.34,1.4,2.02.08.12.14.24.2.37.07.15.07.31.01.46-.15.44-.6.55-.94.23-.08-.08-.15-.16-.21-.25-.47-.67-.94-1.34-1.41-2.02-.07-.1-.14-.21-.18-.33-.1-.25-.06-.5.1-.72.1-.14.24-.21.4-.21Z"/>
        <path class="cls-2" d="M13.33,58.12c.01-.21.11-.41.3-.55.1-.07.22-.13.33-.19.56-.29,1.12-.58,1.68-.87.15-.08.31-.14.48-.2.22-.07.45-.07.61.13.17.2.24.44.14.71-.05.15-.15.28-.28.37-.1.07-.22.13-.33.19-.62.31-1.24.63-1.85.94-.06.03-.11.06-.17.08-.46.21-.9-.08-.9-.61Z"/>
        <path class="cls-2" d="M101.67,76.25c.01.52-.36.81-.81.67-.15-.05-.3-.11-.44-.17-.59-.27-1.18-.54-1.76-.82-.11-.05-.23-.11-.32-.19-.28-.23-.34-.64-.14-.94.17-.26.4-.34.69-.22.36.16.71.34,1.07.5.42.19.84.37,1.26.55.3.12.44.35.46.62Z"/>
        <path class="cls-2" d="M63.04,34.85c-.01.24-.1.45-.33.58-.18.1-.36.1-.54-.02-.07-.04-.12-.1-.18-.15-.47-.44-.94-.89-1.42-1.33-.15-.14-.31-.27-.47-.4-.25-.22-.34-.49-.25-.81.12-.43.53-.57.89-.31.15.11.3.23.44.36.49.45.97.9,1.46,1.35.09.09.18.18.25.28.1.13.14.28.14.46Z"/>
        <path class="cls-2" d="M34.95,37.49c0,.18-.08.34-.19.48-.14.19-.29.37-.44.56-.36.48-.72.96-1.08,1.44-.09.12-.19.25-.31.35-.22.19-.53.15-.71-.08-.18-.23-.24-.48-.11-.75.06-.11.12-.22.19-.32.46-.62.92-1.24,1.39-1.85.1-.14.22-.27.35-.38.27-.23.57-.18.77.11.09.13.14.28.13.45Z"/>
        <path class="cls-2" d="M77.67,55.9c.01-.31.13-.52.36-.67.17-.11.34-.09.49.02.1.07.19.17.26.27.51.68,1.02,1.36,1.54,2.05.11.14.18.29.23.46.05.2.01.37-.1.54-.23.32-.56.36-.84.08-.07-.07-.13-.14-.18-.22-.48-.64-.97-1.29-1.45-1.94-.08-.1-.15-.21-.2-.32-.05-.1-.07-.21-.09-.28Z"/>
        <path class="cls-2" d="M54.41,70.19c.05.6-.07,1.24-.1,1.88,0,.16-.05.31-.12.45-.1.2-.26.32-.48.32-.25,0-.41-.14-.51-.36-.07-.15-.08-.3-.06-.46.11-.92.15-1.85.13-2.78,0-.14,0-.29.04-.42.05-.23.24-.38.47-.4.24-.02.43.09.53.31.07.16.11.33.11.5,0,.3,0,.6,0,.95Z"/>
        <path class="cls-2" d="M68.09,40.82c.19,0,.33.09.45.23.13.16.25.32.37.49.39.54.78,1.07,1.17,1.61.07.1.15.21.21.32.13.26.12.52-.03.77-.18.29-.51.34-.77.12-.13-.12-.24-.25-.34-.39-.46-.62-.91-1.25-1.37-1.88-.06-.09-.13-.18-.18-.28-.12-.26-.11-.52.06-.76.11-.16.26-.23.44-.23Z"/>
        <path class="cls-2" d="M26.7,50.5c.03-.11.05-.23.09-.35.29-.89.58-1.77.94-2.63.04-.09.07-.18.12-.26.13-.2.32-.3.57-.27.23.03.41.24.45.49.03.19,0,.38-.08.56-.09.24-.18.47-.27.71-.21.58-.41,1.16-.61,1.74-.04.12-.08.24-.14.35-.12.21-.29.33-.54.31-.24-.03-.43-.2-.5-.45-.02-.06-.02-.12-.03-.2Z"/>
        <path class="cls-2" d="M66.85,39.13c0,.16-.02.29-.09.4-.18.3-.54.37-.81.15-.09-.07-.16-.15-.23-.24-.52-.61-1.04-1.23-1.56-1.84-.12-.15-.23-.3-.28-.49-.05-.18-.03-.35.05-.51.18-.35.56-.46.86-.17.1.1.2.2.29.31.49.58.97,1.16,1.45,1.74.16.2.31.4.3.64Z"/>
        <path class="cls-2" d="M166.77,59.14c0,.14-.05.28-.14.39-.09.11-.19.21-.31.29-.68.46-1.36.91-2.05,1.35-.3.2-.52.18-.73-.02-.24-.22-.29-.53-.15-.82.07-.15.18-.26.31-.34.68-.45,1.36-.91,2.05-1.36.04-.03.08-.05.12-.07.39-.21.86-.07.9.59Z"/>
        <path class="cls-2" d="M38.93,33.46c0,.14-.08.28-.2.4-.15.15-.29.3-.45.43-.5.4-.93.86-1.38,1.3-.11.11-.23.22-.36.3-.23.14-.46.09-.64-.11-.19-.22-.24-.48-.12-.75.05-.11.12-.22.21-.31.36-.36.7-.73,1.09-1.05.2-.16.37-.35.56-.51.16-.13.32-.26.49-.37.2-.12.39-.09.56.07.16.14.25.38.23.62Z"/>
        <path class="cls-2" d="M43.5,30.21c.01.38-.1.6-.37.74-.18.1-.36.19-.54.29-.49.29-.97.58-1.46.87-.07.04-.13.09-.2.13-.28.16-.46.16-.65,0-.22-.19-.31-.43-.24-.72.05-.21.19-.36.36-.48.41-.26.82-.53,1.24-.78.34-.2.69-.39,1.04-.56.3-.14.63-.02.75.27.04.1.05.21.06.24Z"/>
        <path class="cls-2" d="M77.1,53.45c0,.34-.18.58-.43.64-.2.05-.38,0-.52-.15-.12-.14-.24-.3-.35-.45-.43-.61-.85-1.22-1.28-1.82-.1-.14-.18-.3-.22-.47-.06-.24.01-.44.16-.61.18-.2.47-.24.68-.08.1.08.19.17.26.27.5.71,1,1.42,1.5,2.13.12.17.2.36.19.54Z"/>
        <path class="cls-2" d="M31.45,52.4c.09,0,.19,0,.28,0,.34.03.55.28.56.65.02.37-.17.62-.52.68-.22.04-.44.07-.66.08-.62.01-1.23.1-1.84.17-.4.04-.68-.18-.73-.57-.04-.3.14-.62.41-.73.07-.03.15-.06.23-.06.75-.08,1.51-.15,2.26-.22,0,0,0,0,0,.01Z"/>
        <path class="cls-2" d="M24.42,62.43c.03-.43.06-.85.1-1.27.05-.52.12-1.04.18-1.55.01-.09.03-.19.06-.28.1-.28.31-.41.58-.39.25.03.45.22.49.5.03.2.01.41-.02.61-.02.19-.05.38-.07.56-.06.69-.12,1.38-.19,2.08,0,.09-.02.19-.06.28-.1.22-.27.35-.52.35-.23,0-.38-.13-.48-.33-.09-.18-.09-.37-.08-.56Z"/>
        <path class="cls-2" d="M152.66,67.64c0,.32-.08.52-.3.67-.07.04-.13.09-.2.13-.68.36-1.37.72-2.05,1.08-.07.04-.14.07-.22.1-.28.09-.54-.02-.67-.28-.15-.3-.08-.68.18-.9.07-.06.16-.11.24-.15.67-.35,1.34-.71,2.01-1.06.07-.04.14-.07.21-.11.36-.21.77.08.79.45,0,.05,0,.09,0,.08Z"/>
        <path class="cls-2" d="M34.7,83.14c-.05-.01-.16-.03-.27-.07-.77-.3-1.5-.66-2.21-1.08-.08-.05-.16-.1-.23-.16-.28-.25-.32-.63-.11-.94.13-.19.37-.27.63-.19.12.04.23.1.34.16.57.3,1.14.61,1.75.85.13.05.26.12.38.18.36.18.46.72.18,1.07-.11.13-.24.2-.47.19Z"/>
        <path class="cls-2" d="M45.75,82.9c-.02.23-.14.42-.36.55-.08.05-.17.08-.26.11-.77.24-1.56.38-2.36.51-.37.06-.61-.11-.72-.46-.11-.34.04-.68.36-.83.11-.05.24-.09.36-.1.68-.06,1.33-.26,1.99-.42.09-.02.18-.05.28-.06.43-.05.73.23.71.7Z"/>
        <path class="cls-2" d="M144.9,72.04c-.25,0-.42-.11-.53-.3-.17-.3-.07-.73.21-.93.06-.04.14-.08.21-.12.68-.33,1.36-.66,2.04-.99.07-.03.14-.07.22-.1.48-.16.9.21.81.72-.04.19-.13.36-.29.47-.08.06-.16.1-.24.14-.67.32-1.34.64-2,.96-.14.07-.29.14-.42.13Z"/>
        <path class="cls-2" d="M92.28,70.72c0,.19-.06.35-.19.48-.17.17-.39.22-.61.11-.08-.04-.16-.09-.24-.15-.63-.5-1.25-1.01-1.84-1.56-.09-.09-.19-.17-.26-.28-.18-.25-.21-.52-.04-.8.16-.27.45-.36.74-.21.11.06.21.14.3.22.56.54,1.17,1.01,1.76,1.51.22.18.37.39.37.67Z"/>
        <path class="cls-2" d="M58.74,31.23c0,.54-.44.81-.89.58-.39-.21-.76-.45-1.14-.67-.3-.17-.61-.33-.91-.49-.12-.07-.25-.14-.35-.23-.25-.23-.29-.58-.12-.87.15-.26.39-.35.69-.26.04.01.09.03.13.05.75.37,1.49.76,2.18,1.23.16.11.3.23.37.42.03.09.05.18.06.24Z"/>
        <path class="cls-2" d="M36.71,53.82c-.66-.12-1.4-.08-2.14-.11-.33-.01-.58-.14-.71-.46-.14-.37.03-.74.4-.89.14-.05.28-.07.42-.04.53.09,1.07.06,1.61.07.27,0,.53.04.8.1.27.07.45.23.49.51.05.29-.07.52-.29.7-.15.12-.32.11-.58.11Z"/>
        <path class="cls-2" d="M49.33,57.52c.17,0,.3.1.43.23.44.43.86.88,1.23,1.38.18.24.35.49.52.73.09.13.16.27.19.43.05.28-.11.6-.36.71-.23.1-.47.03-.67-.21-.06-.07-.11-.15-.17-.23-.38-.52-.77-1.04-1.24-1.49-.17-.16-.32-.35-.44-.55-.15-.26-.13-.51.03-.76.11-.15.26-.23.47-.23Z"/>
        <path class="cls-2" d="M53.98,65.91c0,.17-.03.31-.1.44-.1.18-.25.28-.46.29-.21,0-.37-.08-.47-.27-.06-.12-.11-.26-.14-.4-.2-.88-.46-1.74-.79-2.58-.11-.29-.09-.56.11-.8.23-.28.58-.28.81.01.07.09.12.19.16.29.34.9.63,1.82.84,2.76.02.09.03.19.04.26Z"/>
        <path class="cls-2" d="M124.72,78.79c-.43,0-.66-.18-.71-.53-.05-.31.14-.65.44-.76.07-.03.15-.04.23-.06.69-.14,1.39-.28,2.08-.42.09-.02.19-.04.28-.04.39-.03.63.17.71.54.06.32-.15.68-.48.77-.38.1-.76.19-1.15.27-.37.08-.74.14-1.11.21-.11.02-.22.02-.28.03Z"/>
        <path class="cls-2" d="M24.4,66.5c0-.21,0-.41,0-.62,0-.09,0-.19.02-.28.05-.25.24-.44.48-.46.21-.02.43.11.53.33.05.11.08.24.1.36.02.11.02.22.02.33,0,.79.08,1.57.17,2.36.02.17.02.35,0,.52-.04.31-.26.52-.52.53-.26,0-.5-.18-.57-.48-.05-.23-.1-.47-.11-.7-.02-.63-.16-1.25-.13-1.89Z"/>
        <path class="cls-2" d="M18.25,55.92c0-.35.14-.56.4-.68.21-.1.44-.19.66-.26.55-.19,1.11-.38,1.66-.56.04-.02.09-.03.14-.04.39-.13.67.12.76.38.11.33-.02.71-.31.86-.1.05-.21.08-.31.12-.7.25-1.4.49-2.1.74-.04.02-.09.04-.13.05-.34.1-.64-.06-.73-.4-.02-.08-.03-.15-.03-.19Z"/>
        <path class="cls-2" d="M121.71,77.91c.07,0,.1-.01.13-.01.4-.01.62.18.69.57.05.32-.14.63-.46.74-.09.03-.18.04-.28.06-.55.06-1.1.13-1.65.19-.2.02-.41.04-.61.06-.37.04-.67-.17-.75-.51-.07-.33.11-.69.42-.81.09-.03.18-.06.28-.06.7,0,1.38-.14,2.07-.21.06,0,.13,0,.15-.01Z"/>
        <path class="cls-2" d="M162.14,62.16c0,.16-.05.32-.19.45-.11.11-.24.21-.37.29-.61.39-1.23.77-1.85,1.15-.05.03-.11.07-.16.1-.28.15-.46.14-.66-.03-.22-.19-.3-.47-.22-.73.06-.19.17-.34.34-.44.19-.12.38-.23.56-.35.47-.29.94-.58,1.41-.88.08-.05.16-.1.25-.14.46-.21.88.05.89.58Z"/>
        <path class="cls-2" d="M96.23,74.52c-.16,0-.31-.06-.44-.14-.67-.44-1.35-.87-2.02-1.32-.36-.24-.47-.56-.37-.89.11-.36.43-.52.78-.38.1.04.19.11.28.17.58.4,1.18.79,1.79,1.15.14.08.27.16.38.28.2.24.26.5.13.79-.1.22-.28.34-.53.33Z"/>
        <path class="cls-2" d="M168.51,58.19c-.3,0-.48-.13-.56-.39-.1-.34,0-.66.3-.88.24-.18.49-.35.73-.52.36-.25.72-.51,1.09-.76.12-.08.23-.16.36-.23.23-.12.46-.15.66.04.2.18.27.42.2.69-.03.14-.11.26-.22.36-.08.07-.17.14-.26.2-.62.44-1.24.87-1.86,1.3-.14.1-.29.19-.44.18Z"/>
        <path class="cls-2" d="M132.89,76.28c-.02.25-.13.46-.37.59-.1.05-.2.09-.31.12-.71.2-1.43.4-2.14.6-.09.02-.19.04-.28.05-.25.01-.42-.11-.53-.32-.18-.35-.02-.8.34-.96.2-.09.42-.14.63-.2.55-.16,1.09-.31,1.64-.46.09-.03.18-.04.28-.07.47-.12.75.3.75.66Z"/>
        <path class="cls-2" d="M103.77,76.59c.06.02.2.04.34.08.65.18,1.31.36,1.96.55.08.02.15.04.23.06.43.17.59.6.38,1-.1.2-.26.32-.49.31-.13,0-.25-.01-.37-.04-.67-.18-1.34-.37-2-.56-.08-.02-.15-.05-.22-.08-.37-.12-.56-.34-.48-.85.05-.33.25-.49.67-.48Z"/>
        <path class="cls-2" d="M111.06,79.45c-.69-.07-1.5-.15-2.29-.3-.39-.08-.61-.44-.53-.82.07-.32.27-.49.6-.5.38-.02.75.09,1.13.13.45.05.91.13,1.36.17.54.04.81.56.57,1.04-.09.17-.22.27-.41.29-.11.01-.22,0-.44,0Z"/>
        <path class="cls-2" d="M39.86,52.87s.15.01.25.04c.64.16,1.29.31,1.93.48.12.03.24.07.36.13.39.19.52.69.27,1.05-.12.17-.28.25-.49.24-.11,0-.22-.05-.32-.07-.64-.16-1.29-.31-1.93-.47-.14-.03-.28-.07-.41-.11-.38-.11-.6-.64-.32-1.06.14-.21.36-.24.66-.22Z"/>
        <path class="cls-2" d="M47.89,28.04c.37,0,.61.18.7.48.09.3-.04.64-.31.77-.13.06-.27.1-.41.13-.7.13-1.4.26-2.08.48-.03,0-.06.01-.09.02-.41.13-.66-.09-.75-.37-.13-.4.02-.77.38-.9.56-.21,1.15-.33,1.74-.46.29-.06.59-.1.82-.14Z"/>
        <path class="cls-2" d="M47.68,56.42c.03.47-.44.82-.9.53-.13-.08-.27-.17-.4-.25-.48-.3-.98-.56-1.49-.81-.14-.07-.29-.14-.41-.23-.31-.22-.39-.6-.2-.92.17-.29.42-.43.75-.26.46.24.93.46,1.39.71.3.16.6.35.89.54.25.15.37.38.38.69Z"/>
        <path class="cls-2" d="M7.69,62.95c0,.17-.06.35-.18.5-.08.1-.18.18-.27.27-.25.22-.49.44-.74.67-.35.32-.7.64-1.05.96-.17.16-.36.27-.6.17-.27-.11-.36-.34-.37-.61-.01-.22.07-.4.23-.55.43-.42.86-.84,1.29-1.25.17-.16.36-.31.53-.47.06-.05.12-.11.18-.16.18-.15.38-.24.61-.12.21.11.36.34.37.59Z"/>
        <path class="cls-2" d="M142.96,72.49c-.02.23-.1.46-.33.62-.07.04-.14.08-.21.11-.71.3-1.43.6-2.14.9-.07.03-.15.06-.22.08-.26.06-.47-.03-.61-.26-.19-.32-.09-.77.21-.97.08-.05.16-.1.25-.13.67-.28,1.34-.56,2.01-.84.09-.04.17-.08.27-.1.42-.12.77.14.78.6Z"/>
        <path class="cls-2" d="M137.94,74.57c0,.22-.1.41-.3.54-.09.06-.19.11-.3.15-.71.26-1.43.52-2.14.77-.18.06-.36.11-.55.01-.4-.2-.47-.82-.12-1.13.12-.11.27-.17.42-.22.71-.26,1.44-.49,2.14-.77.4-.16.86.08.85.65Z"/>
        <path class="cls-2" d="M12.09,59.6c.01.28-.11.48-.34.64-.31.21-.62.43-.93.65-.33.24-.66.48-1,.72-.09.06-.18.13-.27.18-.3.16-.62.06-.74-.25-.12-.3-.11-.59.13-.84.1-.1.2-.2.32-.28.59-.42,1.18-.84,1.78-1.26.08-.05.16-.11.24-.15.38-.18.74.02.81.44,0,.05,0,.09.01.14Z"/>
        <path class="cls-2" d="M157.45,65c-.02.28-.15.5-.39.65-.31.19-.62.38-.93.56-.4.23-.8.45-1.19.68-.25.14-.5.2-.75.02-.2-.15-.28-.48-.2-.78.05-.18.17-.3.32-.39.31-.19.62-.37.94-.55.34-.2.68-.4,1.02-.59.11-.06.22-.13.33-.18.53-.23.84.21.85.58Z"/>
        <path class="cls-2" d="M88.09,66.98c-.02.24-.11.45-.36.56-.23.1-.43.04-.61-.12-.08-.07-.16-.15-.24-.23-.48-.48-.96-.97-1.43-1.46-.13-.14-.25-.28-.36-.44-.14-.19-.16-.41-.09-.64.12-.39.55-.53.88-.29.08.06.14.13.21.19.58.61,1.16,1.21,1.73,1.82.16.17.27.35.27.6Z"/>
        <path class="cls-2" d="M115.36,79.64c-.41,0-.82.01-1.23,0-.34-.01-.53-.16-.63-.47-.12-.37.14-.79.52-.85.11-.02.22-.01.33-.01.66,0,1.32,0,1.98,0,.11,0,.22,0,.33.01.51.07.75.68.45,1.09-.12.16-.29.24-.49.24-.3,0-.6,0-.9,0-.13,0-.25,0-.38,0h0Z"/>
      </g>
    </g>
  </g>
</svg>