<?xml version="1.0" encoding="UTF-8"?>
<svg id="Capa_2" data-name="Capa 2" xmlns="http://www.w3.org/2000/svg" viewBox="0 0 189.44 63.14">
  <defs>
    <style>
      .cls-1 {
        fill: #fff;
        fill-rule: evenodd;
        stroke-width: 0px;
      }
    </style>
  </defs>
  <g id="Capa_1-2" data-name="Capa 1">
    <g>
      <path class="cls-1" d="M137.47,62.52c-.42-.24-.36-.95-.37-1.58-.08-3.03-.34-6.01-1.03-8.9-.15-.62-.46-.97-1.07-.98-1.62-.02-3.1-.6-4.7-.69-1.48-.09-2.97-.09-4.43-.24-1.59-.16-3.14-.49-4.72-.68-2.68-.32-5.27-1.23-8.1-.62-2.14.45-2.14.52-2.51-1.58-.11-.63-.22-1.3.82-1.38.31-.02.49-.35.71-.57,2.8-2.73,5.33-5.7,8.03-8.52,2.32-2.43,4.55-4.93,6.83-7.39.4-.43.76-.89,1.13-1.35.55-.69,1.34-1.32.75-2.31-.16-.27-.04-.76.22-1.04.61-.65.26-1.06-.02-1.61-2.03-3.88-4.85-7.23-6.79-11.15-1-2.02-2.25-3.88-3.22-5.91-.64-1.32-.98-2.72-.83-4.28.04-.41.18-.76.35-1.13.28-.63.62-.72,1.16-.46,3.53,1.68,7.2,3.08,10.84,4.55,3.26,1.31,6.73,2.14,9.98,3.46,4.4,1.79,8.95,3.25,13.31,5.12,4.57,1.96,9.33,3.51,14.06,5.13,4.68,1.6,9.41,3.06,14.14,4.54,1.62.51,3.05,1.44,4.72,1.87.6.15,1.18.23,1.8.24.22,0,.43-.1.63.09.51.5.31,2.47-.25,3.02-2.64,2.57-5.86,4.24-8.83,6.29-1.55,1.07-3.08,2.19-4.55,3.38-2.36,1.91-4.93,3.46-7.41,5.17-3.75,2.59-7.48,5.2-11.26,7.75-2.1,1.42-4.35,2.59-6.37,4.14-2.17,1.67-4.62,2.89-6.74,4.62-1.47,1.2-3.11,2.12-4.55,3.35-.66.56-1.08.21-1.72-.33M115.35,45.5c3.03-.6,6.09-.54,9.02-1.58,3.58-1.28,7.25-1.76,10.86-2.79,1.86-.54,3.77-.78,5.64-1.22,5.13-1.18,10.26-2.32,15.33-3.95,3.29-1.06,6.59-2.11,9.91-3.08,4.15-1.21,8.2-2.86,12.3-4.31.57-.2,1.2-.27,1.76-.78-2.29-.26-4.52-.27-6.76-.28-3.21,0-6.42-.05-9.62-.23-4.04-.22-8.12-.2-12.15-.52-3.27-.26-6.53-.51-9.84-.53-2.96-.02-5.86-.55-8.89.05-.4.08-.64.26-.92.54-1.46,1.45-2.43,3.28-3.89,4.75-2.29,2.3-4.43,4.74-6.62,7.13-2.04,2.23-3.97,4.57-6.1,6.79M178.92,24.89c-.35-.47-.72-.5-1.05-.58-4.87-1.18-9.5-2.97-14.2-4.56-4.86-1.65-9.56-3.65-14.33-5.49-3.1-1.2-6.19-2.42-9.3-3.59-3.54-1.34-7.21-2.43-10.75-3.79-2.9-1.12-5.74-2.37-8.61-3.55-.19-.08-.41-.4-.67-.09-.17.2,0,.44.06.64.36,1.02.98,1.88,1.49,2.8,1.19,2.16,2.19,4.47,3.62,6.43,2.15,2.94,3.92,6.12,5.79,9.24.66,1.1,1.27,1.72,2.66,1.23.25-.09.52-.09.78-.1,5.13-.15,10.18.32,15.25.6,3.32.19,6.65.35,9.98.5,3.9.18,7.81.27,11.73.28,2.47.01,4.96-.13,7.54.02M182.5,29.71c-1.57.55-3,.92-4.35,1.54-2.5,1.16-5.11,1.88-7.68,2.76-3.16,1.08-6.37,2.01-9.53,3.08-2.34.79-4.73,1.34-7.08,2.15-1.71.59-3.46.98-5.21,1.41-3.81.94-7.73,1.21-11.39,3.11-.52.27-.6.49-.54.96.16,1.44.25,2.9.44,4.34.46,3.47,1.64,6.76,1.51,10.38-.02.58.33.38.65.14.92-.68,1.83-1.36,2.76-2.01,5.08-3.57,10.24-7.04,15.42-10.45,3.92-2.59,7.76-5.32,11.69-7.9,3.39-2.23,6.59-4.75,9.91-7.08,1.08-.76,2.29-1.33,3.39-2.43M122.76,47.1c.26.07.39.11.53.13,1.79.36,3.65.38,5.5.4,2.03.02,3.88.73,5.9.83.57.03.79-.1.71-.71-.13-.95-.23-1.92-.32-2.88-.05-.58-.37-.68-.91-.65-3.87.17-7.52,1.76-11.4,2.88"/>
      <path class="cls-1" d="M102.17,51.96c-.54.3-1.06.67-1.62.89-2.24.89-4.45,1.89-6.65,2.93-1.51.72-2.34.09-2.07-1.51.07-.42.21-.79.77-1.03,3.07-1.34,6.17-2.57,9.12-4.24.69-.39,1.07-.14,1.09.61.02.81.05,1.63-.64,2.34"/>
      <path class="cls-1" d="M43.34,57.15c-.77-.71-.52-1.68.52-2.13,2.79-1.2,5.67-2.14,8.35-3.67.86-.49,1-.18,1.24.72.36,1.3-.42,1.7-1.34,2.21-2.62,1.46-5.37,2.42-8.21,3.09-.29.07-.39-.12-.56-.22"/>
      <path class="cls-1" d="M70.08,57.74c-.31-.12-.39-.49-.5-.87-.34-1.13-.14-1.4,1.02-1.27,1.74.2,3.47.38,5.25.38.68,0,1.33-.22,2-.25.49-.02,1.07-.03,1.02.61-.05.72.46,1.71-.72,2.09-2.75.88-5.35.59-7.83-.35-.08-.03-.12-.17-.23-.34"/>
      <path class="cls-1" d="M59.67,53.92c-.89-.61-1.72-1.25-1.88-2.46-.05-.41-.23-.84.14-1.13.33-.26.58.14.85.29,1.77.97,3.55,1.92,5.44,2.7.69.28.94,1.88.41,2.51-.2.24-.41.22-.69.21-1.78-.11-3.01-1.13-4.26-2.11"/>
      <path class="cls-1" d="M82.97,58.62c-.69-.55-.84-1.1-.89-1.64-.03-.39.1-.77.74-.87,1.48-.23,2.95-.58,4.39-1.13.28-.11.59-.14.88-.13.55.01,1.31-.23,1.45.52.2,1.08-.32,1.96-1.28,2.26-1.27.41-2.56.73-3.84,1.12-.68.21-1.16-.13-1.46-.14"/>
      <path class="cls-1" d="M64.5,44.72c-.42.39-.79.64-1.04.98-.76.99-1.49.87-2.29.32-.53-.37-.72-.72-.14-1.33,1.39-1.44,2.79-2.89,3.98-4.5.38-.51.88-.99,1.5-.44.6.52,1.07,1.19.45,2.01-.8,1.06-1.5,2.21-2.46,2.97"/>
      <path class="cls-1" d="M11.69,49.81c-1.43-1.69-2.48-3.36-2.84-5.43-.06-.36-.14-.72-.16-1.09-.01-.33.23-.6.51-.73.34-.16.4.19.53.38.48.74,1.01,1.45,1.42,2.24.7,1.35,1.89,2.25,2.85,3.36.23.27.56.49.49.9-.08.46.12,1.02-.38,1.37-.55.4-.89-.08-1.28-.29-.46-.25-.89-.56-1.14-.72"/>
      <path class="cls-1" d="M31.85,56.5c.18-.31.45-.11.68-.12,1.71-.11,3.42-.21,5.11-.73.45-.14,1.12-.44,1.18.25.06.71.57,1.68-.56,2.17-1.71.75-3.48,1.08-5.24.74-.89-.17-1.67-1.75-1.18-2.31"/>
      <path class="cls-1" d="M52.17,28.06c.43-.34.88-.86,1.22-.64.38.25.77.7.7,1.32-.09.84-.47,1.61-.8,2.38-.38.89-.68,1.79-1.03,2.68-.18.47-.17,1.28-.84,1.19-.68-.09-1.36-.48-1.5-1.31-.04-.21-.02-.45.03-.67.4-1.81,1.24-3.46,2.22-4.97"/>
      <path class="cls-1" d="M20.64,55.61c-.51-.56-.7-1.5-.99-2.37-.13-.39.23-.89.75-.53,1.63,1.11,3.6,1.51,5.44,2.2,1.03.38.45,1.25.35,1.89-.11.66-.75.58-1.21.47-1.46-.37-3.04-.49-4.34-1.65"/>
      <path class="cls-1" d="M51.88,47.54c-1.67-1.35-2.08-3.39-1.98-5.66,0-.26.04-.54.16-.77.15-.31.13-.82.66-.81.61.01.3.54.31.84.09,1.9.95,3.36,2.22,4.59.65.62,1.01,1.33.76,2.33-.14.57-.24.97-.91.5-.4-.29-.83-.54-1.22-1.02"/>
      <path class="cls-1" d="M2.41,16.93c-1.27-.09-1.96-.51-2.19-1.71-.29-1.44-.31-2.88.05-4.35.12-.51.17-1.2.92-1.31.5-.07,1.54,1.02,1.52,1.56-.01.37-.09.74-.15,1.11-.23,1.54-.61,3.09-.15,4.7"/>
      <path class="cls-1" d="M70.75,30.52c.12.28.44.44.46.81.11,1.8-.18,3.54-1.17,5.22-.28.48-.66.77-1.04.53-.41-.25-1.2-.29-.93-1.17.55-1.79,1.09-3.58.97-5.43-.04-.6.54-.59.92-.49.3.08.52.34.79.53"/>
      <path class="cls-1" d="M56.12,23.13c1.74-1.63,4.68-1.83,5.77-.47.17.21.46.39.33.74-.15.39-.5.3-.78.33-1.17.12-2.26.48-3.29,1.17-.71.48-2,.17-2.37-.5-.29-.54-.01-.99.34-1.27"/>
      <path class="cls-1" d="M68.35,24.09c.53.47.91,1.1,1.2,1.8.09.22.21.52-.04.73-.18.14-.43.08-.61-.07-1.28-1.04-2.9-1.6-4.15-2.7-.35-.31-.58-.71-.36-1.16.25-.52.75-.29,1.1-.22,1.13.21,2.07.76,2.85,1.62"/>
      <path class="cls-1" d="M3.01,22.9c.06.07.21.16.24.29.27,1.11.53,2.23.76,3.36.1.47-.06.7-.61.6-.43-.08-.9-.1-1.12-.52-.62-1.16-1.19-2.34-1.3-3.72-.05-.63.5-.99,1.05-.7.34.18.63.45.98.7"/>
      <path class="cls-1" d="M5.72,38.33c-.33.38-.48.08-.58-.11-.86-1.59-1.71-3.18-1.71-5.14,0-.57.28-1.02.79-1.12.49-.09.38.46.48.79.32,1.02.77,1.99,1.06,3.02.23.81.46,1.67-.05,2.55"/>
    </g>
  </g>
</svg>