<?xml version="1.0" encoding="UTF-8"?>
<svg id="Capa_2" data-name="Capa 2" xmlns="http://www.w3.org/2000/svg" viewBox="0 0 205.25 47.4">
  <defs>
    <style>
      .cls-1 {
        fill: #fff;
        stroke-width: 0px;
      }
    </style>
  </defs>
  <g id="Capa_1-2" data-name="Capa 1">
    <g>
      <path class="cls-1" d="M205.25,0c.01.18-.08.34-.15.5-.44,1.05-.89,2.09-1.33,3.13-.65,1.54-1.3,3.08-1.95,4.62-.45,1.06-.9,2.11-1.35,3.17-.65,1.54-1.3,3.08-1.95,4.62-.45,1.07-.91,2.13-1.36,3.2-.35.84-.7,1.68-1.06,2.52-.06.15-.07.35-.27.42-.16-.07-.22-.23-.31-.36-.61-.9-1.22-1.8-1.83-2.69-.6-.89-1.21-1.77-1.82-2.65-.2-.3-.25-.33-.51-.02-.72.86-1.46,1.71-2.19,2.56-.53.61-1.06,1.23-1.59,1.84-.17.2-.34.4-.52.59-.04.04-.09.08-.14.11-.03.02-.08,0-.09-.04-.01-.05-.02-.1-.02-.15.01-.46-.01-.92.04-1.38.02-.14.02-.27.02-.41.01-.82,0-1.65.04-2.47.05-.86,0-1.72.07-2.58.05-.74.04-1.47.06-2.21,0-.27,0-.55.04-.82.04-.21-.03-.36-.22-.47-.39-.24-.78-.5-1.16-.75-1.33-.87-2.65-1.73-3.98-2.6-.52-.34-1.05-.67-1.58-1.01-.06-.04-.12-.08-.19-.13-.05-.04-.11-.07-.11-.14,0-.07.08-.09.14-.11.24-.06.48-.12.73-.18,1.11-.28,2.23-.56,3.34-.83.99-.25,1.99-.49,2.98-.74.79-.2,1.57-.4,2.36-.59.8-.2,1.6-.39,2.4-.59.99-.25,1.98-.5,2.98-.75.81-.2,1.62-.4,2.43-.6.71-.18,1.43-.35,2.14-.53.77-.19,1.55-.39,2.32-.58,1-.25,2.01-.5,3.01-.75.12-.03.24-.06.35-.13h.22ZM204,1.57c-.08.06-.12.09-.15.12-.45.42-.9.83-1.34,1.25-.42.39-.84.79-1.26,1.17-.76.7-1.53,1.39-2.29,2.09-.77.71-1.54,1.42-2.31,2.13-.36.33-.72.66-1.08.99-.42.39-.85.77-1.27,1.16-.59.55-1.18,1.11-1.78,1.66-.5.47-1.01.92-1.52,1.39-.27.25-.27.26-.07.55.38.57.77,1.13,1.16,1.7.86,1.27,1.73,2.53,2.59,3.8.31.45.62.91.93,1.36.04.06.06.14.19.12.06-.14.14-.3.21-.46.22-.52.42-1.04.64-1.56.61-1.45,1.23-2.89,1.85-4.34.48-1.14.95-2.28,1.43-3.41.55-1.3,1.11-2.59,1.66-3.89.58-1.38,1.16-2.76,1.75-4.14.19-.45.38-.9.57-1.34.04-.1.1-.2.1-.37ZM181.24,6.63c.06.12.18.16.28.23,1.52.99,3.03,1.97,4.55,2.96.36.23.71.46,1.07.69.17.11.32.12.49,0,.04-.03.08-.05.13-.08,1.03-.63,2.07-1.26,3.1-1.89,2.12-1.29,4.25-2.57,6.37-3.86,1.07-.65,2.13-1.3,3.19-1.95.75-.45,1.5-.9,2.24-1.35.06-.03.14-.05.14-.16-.04,0-.07,0-.11,0-7.13,1.78-14.26,3.56-21.38,5.35-.02,0-.04.03-.07.06ZM202.31,2.34s-.02-.03-.03-.04c-.08.04-.17.08-.25.13-.55.34-1.1.68-1.66,1.02-1.3.79-2.6,1.57-3.91,2.36-2.14,1.3-4.28,2.6-6.42,3.91-.69.42-1.38.85-2.08,1.26-.26.15-.38.35-.37.64,0,.02,0,.05,0,.07-.02.87-.02,1.74-.07,2.62-.05.87-.02,1.74-.07,2.62-.04.77-.02,1.55-.03,2.32,0,.06-.02.12.06.17.07-.05.09-.14.13-.21.28-.63.55-1.25.83-1.88.52-1.16,1.05-2.32,1.57-3.48.1-.22.25-.4.43-.56.28-.25.55-.51.83-.76.38-.35.75-.69,1.13-1.04.43-.4.87-.79,1.3-1.19.54-.5,1.07-1.01,1.61-1.51,1.07-.99,2.15-1.97,3.23-2.95.76-.7,1.52-1.4,2.28-2.11.37-.34.73-.68,1.09-1.02.13-.12.27-.25.4-.37ZM188.29,19.04s.04.03.06.05c.09-.1.19-.19.28-.29.76-.88,1.51-1.75,2.26-2.63.11-.12.2-.25.31-.37.09-.1.08-.2.01-.3-.23-.34-.46-.68-.69-1.02-.07-.11-.14-.1-.19.01-.15.33-.3.65-.45.98-.5,1.11-1,2.23-1.49,3.34-.03.08-.06.16-.1.24Z"/>
      <path class="cls-1" d="M112.29,39.59c.09,0,.17.04.24.1.07.07.14.14.2.22.49.63,1.03,1.21,1.6,1.77.08.08.16.16.21.26.09.15.08.31-.02.46-.1.16-.29.21-.46.13-.06-.03-.11-.06-.15-.1-.1-.09-.21-.18-.31-.27-.52-.53-1.02-1.09-1.48-1.68-.06-.08-.12-.16-.17-.25-.06-.11-.07-.24-.04-.36.05-.16.2-.27.36-.27Z"/>
      <path class="cls-1" d="M132.59,47.24c-.26,0-.41-.1-.48-.31-.07-.2.01-.42.21-.5.14-.05.29-.09.43-.1.76-.06,1.51-.17,2.26-.29.21-.03.37,0,.49.19.13.21.07.45-.14.58-.12.07-.26.1-.39.12-.75.1-1.51.2-2.26.3-.05,0-.1,0-.13,0Z"/>
      <path class="cls-1" d="M107.14,26.05c0,.12,0,.22-.03.31-.06.14-.15.23-.3.24-.16.02-.3-.05-.36-.2-.04-.08-.06-.16-.07-.25-.05-.41-.11-.81-.15-1.22-.05-.49-.09-.99-.13-1.49-.01-.14-.01-.27.03-.41.06-.17.2-.28.35-.29.15,0,.3.1.36.28.03.09.05.19.05.29,0,.87.13,1.73.24,2.6,0,.05,0,.1,0,.13Z"/>
      <path class="cls-1" d="M137.53,45.99c0-.19.07-.31.21-.39.09-.05.18-.08.28-.1.75-.18,1.51-.35,2.26-.53.07-.02.15-.04.22-.05.21-.02.36.07.44.27.07.17.02.34-.13.47-.09.08-.2.11-.3.14-.69.16-1.38.33-2.08.49-.13.03-.27.05-.4.09-.25.07-.51-.16-.5-.39Z"/>
      <path class="cls-1" d="M122.63,7.04c.11.02.24.04.36.05.74.09,1.47.25,2.19.46.08.02.17.05.24.1.18.11.25.33.17.52-.08.19-.23.28-.45.25-.09-.01-.17-.04-.25-.06-.55-.15-1.11-.28-1.68-.37-.15-.02-.3-.03-.44-.05-.11-.02-.22-.03-.33-.07-.2-.08-.3-.28-.25-.49.04-.2.22-.34.44-.34Z"/>
      <path class="cls-1" d="M97.64,38.49c-.66-.06-1.31-.11-1.97-.17-.15-.01-.3-.04-.44-.09-.2-.06-.31-.24-.29-.43.02-.21.17-.37.39-.39.12,0,.25,0,.37.01.74.11,1.48.16,2.23.21.1,0,.2.02.29.07.16.09.24.27.21.44-.03.19-.15.31-.34.34-.15.03-.3,0-.45,0Z"/>
      <path class="cls-1" d="M10.7,32.81c0,.27-.27.52-.53.39-.2-.1-.4-.2-.6-.3-.54-.28-1.05-.61-1.56-.95-.11-.07-.23-.15-.33-.25-.16-.14-.2-.33-.12-.51.08-.19.26-.28.46-.22.08.03.16.07.23.12.68.46,1.38.89,2.11,1.26.23.11.34.27.34.45Z"/>
      <path class="cls-1" d="M106.2,19.93c.06-.42.11-.84.18-1.26.09-.48.2-.95.3-1.43.02-.1.05-.19.09-.29.08-.19.24-.29.41-.25.18.04.32.22.32.41,0,.09-.03.17-.05.26-.14.57-.26,1.14-.34,1.72-.04.28-.08.57-.12.85-.01.1-.03.2-.06.29-.07.19-.23.3-.4.28-.17-.02-.3-.16-.32-.36,0-.07,0-.15,0-.22,0,0-.01,0-.02,0Z"/>
      <path class="cls-1" d="M111.03,37.49c0,.23-.11.39-.27.45-.15.05-.31,0-.42-.16-.07-.1-.13-.21-.2-.32-.41-.73-.79-1.46-1.12-2.23-.04-.09-.08-.19-.09-.28-.03-.19.07-.36.23-.43.18-.07.36,0,.48.18.05.08.09.18.13.27.36.74.71,1.48,1.12,2.19.07.12.14.24.14.34Z"/>
      <path class="cls-1" d="M.38,22.21c.12,0,.23.06.3.17.06.09.12.19.18.29.41.7.83,1.39,1.28,2.07.05.07.1.15.13.23.06.13.04.27-.04.39-.13.2-.37.24-.55.09-.07-.06-.14-.15-.19-.23-.47-.69-.91-1.4-1.32-2.13-.05-.09-.09-.18-.13-.27-.05-.11-.05-.22-.02-.33.04-.17.19-.28.37-.28Z"/>
      <path class="cls-1" d="M46.84,22.7c0,.15-.08.29-.24.36-.12.06-.26.1-.39.13-.72.17-1.41.39-2.12.61-.05.01-.09.04-.14.05-.2.05-.39-.02-.48-.19-.1-.18-.06-.41.11-.54.08-.06.17-.1.26-.13.78-.26,1.57-.48,2.37-.68.06-.02.12-.03.18-.03.25-.01.43.16.44.43Z"/>
      <path class="cls-1" d="M15.41,34.81c-.44-.08-.92-.15-1.4-.25-.34-.07-.68-.17-1.01-.26-.1-.03-.19-.06-.28-.11-.17-.1-.24-.3-.18-.49.06-.19.22-.3.43-.28.09,0,.17.03.26.05.68.2,1.38.34,2.08.42.11.01.22.04.33.07.23.06.36.26.33.47-.03.21-.21.36-.45.37-.02,0-.05,0-.11,0Z"/>
      <path class="cls-1" d="M38.27,25.48c0-.14.06-.26.18-.34.07-.05.15-.09.23-.12.73-.32,1.46-.64,2.19-.95.05-.02.09-.04.14-.06.23-.07.41,0,.51.18.1.2.05.43-.14.56-.08.06-.17.1-.27.13-.73.3-1.45.6-2.16.94-.04.02-.09.04-.14.06-.28.13-.56-.08-.55-.41Z"/>
      <path class="cls-1" d="M108.56,32.07c-.02.07-.03.14-.06.21-.06.14-.17.21-.32.22-.14,0-.24-.05-.31-.17-.04-.07-.08-.16-.1-.24-.29-.85-.54-1.71-.76-2.58-.02-.07-.04-.15-.04-.22,0-.07,0-.15.01-.22.04-.15.15-.26.31-.29.13-.03.29.06.37.21.05.11.09.23.12.35.16.67.35,1.32.56,1.98.05.17.11.33.16.5.03.08.04.17.07.26Z"/>
      <path class="cls-1" d="M180.9,25.53c0,.13-.06.25-.17.34-.07.06-.16.12-.24.18-.64.43-1.28.87-1.91,1.3-.07.05-.15.09-.22.13-.14.08-.29.08-.41-.03-.14-.12-.19-.3-.12-.47.05-.12.13-.21.24-.28.17-.12.35-.24.52-.36.51-.35,1.03-.7,1.55-1.04.07-.05.14-.1.22-.13.28-.12.54.06.55.37Z"/>
      <path class="cls-1" d="M23.3,33.1c0-.19.1-.33.28-.4.22-.09.43-.19.65-.27.5-.19.99-.41,1.47-.64.13-.06.27-.13.41-.17.18-.06.34.03.44.2.09.17.09.37-.04.48-.08.08-.18.14-.28.18-.75.35-1.52.68-2.3.98-.03.01-.07.03-.1.04-.3.12-.54-.16-.53-.4Z"/>
      <path class="cls-1" d="M148.14,42.84c0-.16.07-.29.21-.37.06-.04.13-.07.2-.09.71-.28,1.41-.55,2.12-.83.09-.04.19-.06.28-.1.18-.07.35-.02.47.19.09.16.06.38-.09.51-.06.06-.14.11-.22.14-.76.3-1.53.6-2.29.89-.06.02-.12.04-.18.05-.28.06-.5-.11-.5-.39Z"/>
      <path class="cls-1" d="M133.11,16.1c0,.11-.02.2-.07.27-.15.23-.48.24-.62,0-.06-.1-.1-.23-.13-.35-.22-.81-.49-1.59-.86-2.34-.07-.13-.13-.27-.11-.43.03-.25.24-.4.48-.33.09.03.16.08.2.16.08.14.17.28.23.42.36.77.63,1.57.84,2.39.02.07.03.15.04.2Z"/>
      <path class="cls-1" d="M51.65,21.4c.09,0,.18,0,.26,0,.2.03.34.18.35.38,0,.2-.1.38-.29.43-.07.02-.15.02-.22.03-.75.08-1.51.14-2.26.27-.1.02-.2.03-.3.02-.23,0-.38-.13-.42-.35-.03-.2.08-.39.29-.47.05-.02.1-.03.14-.04.81-.14,1.62-.22,2.44-.29Z"/>
      <path class="cls-1" d="M166.54,34.5c0,.2-.1.33-.25.43-.16.1-.32.19-.49.28-.54.3-1.09.6-1.64.9-.09.05-.18.1-.27.13-.22.09-.41.03-.52-.16-.1-.18-.07-.4.09-.54.05-.04.1-.07.16-.1.75-.41,1.51-.83,2.26-1.24.03-.02.07-.03.1-.05.27-.14.55.09.55.36Z"/>
      <path class="cls-1" d="M173.42,30.61c-.26-.01-.44-.27-.37-.52.04-.14.12-.24.24-.32.24-.15.48-.31.73-.46.47-.3.95-.6,1.42-.9.04-.03.09-.05.13-.08.21-.15.39-.07.5.06.14.16.15.39.01.55-.06.08-.15.14-.23.19-.21.14-.42.28-.63.41-.48.31-.97.61-1.45.92-.12.07-.23.15-.36.15Z"/>
      <path class="cls-1" d="M132.76,25.22s-.02.15-.06.24c-.1.27-.19.54-.3.8-.23.54-.48,1.07-.78,1.57-.06.11-.13.22-.21.31-.11.14-.26.18-.4.12-.15-.06-.23-.18-.25-.34-.02-.16.05-.29.12-.42.14-.26.29-.52.43-.79.24-.46.45-.95.62-1.44.04-.11.07-.21.13-.31.1-.17.28-.24.45-.18.15.05.24.19.25.44Z"/>
      <path class="cls-1" d="M69.77,27.47c.09,0,.17.03.25.08.14.1.28.2.42.31.54.4,1.09.79,1.63,1.19.1.07.2.15.28.24.14.17.13.39-.01.55-.12.14-.32.16-.51.05-.03-.02-.06-.04-.09-.06-.68-.5-1.37-1-2.05-1.5-.1-.07-.2-.15-.25-.27-.11-.26.07-.57.34-.58Z"/>
      <path class="cls-1" d="M65.17,24.24c.13,0,.24.07.34.13.58.34,1.13.72,1.69,1.11.16.11.33.22.49.35.16.13.23.29.16.5-.07.21-.26.32-.47.25-.08-.03-.16-.07-.23-.12-.69-.47-1.38-.94-2.09-1.37-.09-.05-.17-.11-.22-.19-.09-.14-.09-.28-.02-.43.07-.15.2-.22.36-.22Z"/>
      <path class="cls-1" d="M31.57,29.41c0,.13-.04.25-.14.33-.07.06-.14.11-.21.15-.7.38-1.4.76-2.11,1.14-.08.04-.16.08-.24.1-.17.05-.33,0-.43-.13-.11-.15-.11-.3-.03-.46.07-.13.18-.2.31-.26.28-.14.55-.29.82-.44.44-.24.88-.47,1.32-.71.07-.04.13-.07.2-.09.28-.09.5.08.51.37Z"/>
      <path class="cls-1" d="M171.41,31.65c0,.13-.04.25-.13.33-.08.07-.18.14-.27.2-.67.4-1.34.81-2.01,1.21-.05.03-.11.06-.16.09-.21.1-.38.06-.5-.1-.13-.17-.12-.43.04-.58.05-.05.12-.09.18-.13.72-.43,1.45-.87,2.17-1.3.04-.03.09-.05.13-.07.27-.14.55.09.55.35Z"/>
      <path class="cls-1" d="M111.84,38.17c-.25,0-.42-.13-.45-.36-.03-.23.09-.41.33-.47.27-.06.54-.09.81-.14.58-.1,1.15-.19,1.73-.29.06-.01.12-.02.18-.02.19,0,.33.11.39.29.06.19-.01.39-.18.49-.14.09-.3.11-.46.14-.54.09-1.08.18-1.62.27-.25.04-.49.07-.73.1Z"/>
      <path class="cls-1" d="M156.58,39.61c0,.23-.11.37-.32.46-.49.22-.97.44-1.46.66-.25.11-.5.22-.75.33-.09.04-.18.08-.28.1-.17.04-.33-.03-.42-.17-.1-.14-.1-.31,0-.46.08-.12.2-.18.33-.24.32-.14.64-.28.96-.42.37-.17.75-.34,1.12-.51.11-.05.23-.1.35-.13.26-.06.47.1.48.38Z"/>
      <path class="cls-1" d="M92.46,37.9c-.38-.06-.78-.12-1.17-.19-.37-.06-.74-.13-1.1-.2-.15-.03-.29-.06-.43-.12-.19-.08-.28-.29-.23-.5.05-.19.2-.3.42-.3.06,0,.12.01.18.02.59.1,1.17.21,1.76.31.18.03.37.05.55.08.09.01.17.03.25.07.21.09.31.27.27.47-.04.21-.19.33-.43.34-.02,0-.05,0-.08,0Z"/>
      <path class="cls-1" d="M143.29,45.02c-.19,0-.34-.12-.39-.27-.06-.16,0-.35.13-.47.08-.06.17-.1.27-.13.75-.24,1.49-.47,2.24-.71.08-.03.17-.05.25-.06.2-.03.36.04.44.2.08.16.05.35-.08.48-.07.07-.16.12-.25.15-.82.26-1.64.52-2.46.77-.06.02-.12.03-.16.03Z"/>
      <path class="cls-1" d="M110.21,11.88c0,.13-.05.24-.13.34-.12.14-.24.28-.36.43-.41.5-.76,1.04-1.07,1.61-.05.1-.1.2-.17.29-.12.17-.28.22-.42.16-.16-.07-.27-.23-.27-.41,0-.12.05-.22.1-.32.1-.18.2-.37.31-.55.35-.57.74-1.12,1.17-1.63.06-.07.12-.13.18-.19.11-.11.24-.17.4-.1.17.07.24.21.25.38Z"/>
      <path class="cls-1" d="M18.47,34.82c-.32,0-.51-.15-.51-.42,0-.2.11-.36.31-.41.11-.03.22-.05.33-.05.72-.06,1.43-.21,2.13-.36.07-.02.15-.04.22-.04.23-.02.4.1.46.3.05.19-.05.4-.24.5-.05.03-.12.04-.18.06-.8.19-1.6.34-2.42.43-.04,0-.07,0-.1,0Z"/>
      <path class="cls-1" d="M133.58,20.13c.02.72-.05,1.37-.12,2.01,0,.07-.02.15-.04.22-.05.15-.19.26-.34.25-.15,0-.26-.07-.33-.2-.07-.12-.08-.26-.07-.4.03-.37.09-.74.1-1.12.02-.49.01-.97.02-1.46,0-.11,0-.23,0-.34.03-.19.17-.33.34-.34.17-.02.33.09.38.29.03.11.04.22.04.33,0,.27,0,.55,0,.75Z"/>
      <path class="cls-1" d="M120.18,7.4c0,.19-.08.34-.26.41-.08.03-.17.05-.25.06-.79.04-1.56.17-2.33.33-.06.01-.12.03-.18.03-.22.01-.39-.12-.43-.33-.04-.2.06-.42.26-.48.23-.07.46-.12.69-.17.66-.13,1.33-.19,2-.27.26-.03.51.15.51.41Z"/>
      <path class="cls-1" d="M124.11,47.09c-.23-.04-.5-.09-.77-.14-.56-.1-1.12-.22-1.67-.38-.08-.02-.17-.05-.24-.09-.18-.1-.26-.32-.19-.51.07-.19.22-.28.44-.26.06,0,.12.02.18.03.77.22,1.55.35,2.34.5.06.01.12.02.18.04.19.06.3.24.29.43-.02.2-.18.36-.39.38-.04,0-.07,0-.15,0Z"/>
      <path class="cls-1" d="M82.28,34.83c0,.24-.2.48-.51.38-.24-.08-.47-.16-.7-.26-.58-.24-1.15-.48-1.72-.72-.09-.04-.18-.08-.25-.16-.17-.17-.17-.43,0-.61.09-.1.21-.14.34-.11.1.02.19.06.28.1.7.31,1.4.59,2.11.86.09.04.19.07.27.13.14.08.2.22.2.38Z"/>
      <path class="cls-1" d="M84.57,35.29c.06.01.15.03.23.05.77.21,1.54.42,2.31.63.11.03.22.06.31.13.16.13.21.32.13.5-.07.17-.23.26-.43.23-.16-.02-.32-.06-.48-.1-.67-.18-1.34-.37-2.02-.55-.19-.05-.35-.13-.43-.32-.11-.27.07-.56.38-.56Z"/>
      <path class="cls-1" d="M77.22,32.53c0,.29-.27.48-.55.38-.13-.05-.24-.12-.36-.19-.63-.35-1.26-.71-1.87-1.09-.1-.07-.21-.14-.29-.23-.16-.17-.15-.4,0-.57.11-.13.25-.16.4-.09.08.03.16.07.23.12.68.44,1.39.83,2.09,1.23.06.04.13.07.19.12.1.09.15.2.15.33Z"/>
      <path class="cls-1" d="M111.98,10.42c-.21,0-.39-.23-.34-.47.02-.11.08-.21.17-.29.06-.05.12-.09.18-.13.7-.46,1.42-.87,2.19-1.2.03-.01.07-.03.1-.04.22-.07.41,0,.51.19.09.19.05.41-.12.54-.07.05-.15.09-.23.13-.72.32-1.41.7-2.07,1.12-.11.07-.23.15-.39.15Z"/>
      <path class="cls-1" d="M122.02,34.92c0-.1.05-.23.17-.31.09-.06.19-.12.29-.16.69-.31,1.37-.65,2.04-1.02.05-.03.11-.06.16-.09.22-.1.41-.06.52.12.11.17.08.4-.07.55-.05.05-.11.1-.18.13-.74.43-1.51.81-2.31,1.15-.06.02-.12.05-.18.06-.24.04-.44-.13-.45-.42Z"/>
      <path class="cls-1" d="M117.25,37.13c-.22,0-.39-.12-.45-.31-.05-.18.03-.39.2-.47.12-.06.25-.1.39-.14.42-.12.84-.24,1.25-.36.29-.08.57-.18.85-.26.06-.02.12-.04.18-.05.21-.04.38.04.46.23.08.19.02.42-.15.53-.08.05-.18.1-.27.13-.65.21-1.3.42-1.96.58-.18.04-.36.09-.51.13Z"/>
      <path class="cls-1" d="M106.82,38.64c-.19,0-.35,0-.51,0-.24-.02-.37-.16-.39-.38-.01-.23.12-.41.36-.45.1-.02.2-.01.3-.02.22-.01.45-.03.67-.04.48-.03.97-.07,1.45-.1.09,0,.17,0,.26,0,.28.01.43.15.44.4,0,.25-.13.4-.41.44-.22.03-.44.06-.67.07-.51.03-1.02.06-1.5.09Z"/>
      <path class="cls-1" d="M129.76,30.23c0,.15-.08.28-.19.38-.33.32-.65.66-.99.97-.27.25-.57.48-.86.72-.07.06-.14.11-.21.16-.21.13-.36.12-.5-.03-.14-.15-.17-.38-.05-.55.06-.08.14-.14.21-.21.26-.22.51-.43.78-.65.35-.28.66-.61.98-.92.06-.06.12-.13.19-.18.12-.11.25-.16.41-.09.16.07.24.2.23.4Z"/>
      <path class="cls-1" d="M161.61,37.18c0,.13-.04.25-.15.33-.08.06-.17.11-.25.15-.7.35-1.4.7-2.1,1.05-.06.03-.11.06-.17.08-.22.09-.4.03-.51-.15-.1-.18-.07-.41.09-.54.08-.06.17-.11.26-.15.53-.27,1.07-.54,1.6-.8.16-.08.31-.16.46-.24.08-.04.16-.08.24-.11.28-.09.53.09.54.39Z"/>
      <path class="cls-1" d="M130.39,10.94c0,.15-.09.29-.25.36-.14.06-.27.02-.38-.08-.22-.2-.44-.4-.66-.61-.37-.35-.79-.65-1.22-.92-.1-.07-.21-.14-.3-.21-.11-.09-.16-.22-.16-.36.01-.28.26-.45.53-.35.07.03.13.07.2.11.42.24.81.53,1.18.84.31.26.61.51.88.81.13.15.18.26.18.42Z"/>
      <path class="cls-1" d="M6.08,29.55c0,.15-.06.29-.2.37-.14.08-.29.06-.42-.03-.08-.06-.15-.13-.22-.2-.57-.56-1.13-1.13-1.65-1.74-.08-.09-.15-.2-.22-.3-.08-.13-.06-.27.02-.39.12-.22.39-.27.57-.1.13.12.24.25.35.39.47.55.98,1.06,1.5,1.57.06.06.12.12.18.19.06.07.09.15.09.25Z"/>
      <path class="cls-1" d="M36.51,26.76c0,.15-.06.28-.2.37-.13.08-.26.15-.39.22-.63.33-1.26.67-1.88,1-.08.04-.16.08-.24.11-.15.04-.3.03-.41-.1-.12-.14-.13-.33-.04-.49.04-.08.11-.14.18-.18.09-.05.17-.1.26-.15.63-.33,1.26-.66,1.89-.99.1-.05.2-.1.3-.14.25-.12.54.05.54.37Z"/>
      <path class="cls-1" d="M63.02,23.31c0,.31-.2.5-.46.45-.08-.02-.17-.05-.25-.08-.69-.29-1.39-.53-2.11-.74-.12-.03-.24-.08-.34-.14-.2-.12-.26-.37-.16-.55.09-.17.24-.25.43-.2.13.03.26.07.4.11.7.21,1.4.44,2.07.74.08.04.16.07.23.12.12.08.18.2.19.3Z"/>
      <path class="cls-1" d="M118.98,45.6c-.14,0-.27-.06-.39-.11-.57-.24-1.12-.54-1.66-.85-.16-.09-.32-.18-.48-.28-.12-.07-.23-.16-.29-.28-.08-.17-.06-.36.06-.48.12-.12.26-.14.45-.06.09.04.18.09.26.14.62.39,1.28.71,1.95,1.02.11.05.23.09.32.18.16.15.19.36.08.54-.07.12-.17.18-.3.18Z"/>
      <path class="cls-1" d="M55.3,21.33c.63.02,1.27.06,1.9.15.06,0,.12.02.18.03.26.07.4.33.31.58-.05.15-.17.25-.34.25-.21,0-.42-.01-.63-.04-.61-.07-1.21-.13-1.82-.13-.1,0-.2,0-.3-.02-.21-.04-.36-.22-.35-.42,0-.2.17-.38.38-.4.22-.02.45,0,.67,0Z"/>
      <path class="cls-1" d="M128.34,46.55c.39,0,.77,0,1.16,0,.1,0,.2,0,.3.02.23.05.38.33.3.56-.05.14-.14.23-.29.26-.07.01-.15.01-.22.01-.76,0-1.52,0-2.28,0-.14,0-.27,0-.41-.05-.28-.11-.37-.44-.17-.67.08-.09.18-.13.3-.13.19,0,.37,0,.56,0,.25,0,.5,0,.75,0h0Z"/>
      <path class="cls-1" d="M102.13,38.7c-.32,0-.65,0-.97,0-.12,0-.25,0-.37-.03-.23-.05-.38-.22-.37-.44,0-.21.16-.37.41-.4.11-.01.22-.02.34,0,.61.07,1.22.04,1.83.05.02,0,.05,0,.07,0,.15.01.33-.05.42.08.13.17.11.4.09.61,0,.08-.06.14-.15.15-.09.01-.17.02-.26.02-.35,0-.7,0-1.05,0v-.02Z"/>
      <path class="cls-1" d="M182.44,23.92c0-.16.05-.26.14-.34.08-.07.17-.14.26-.21.29-.21.59-.42.88-.63.06-.04.12-.08.19-.13.14-.09.28-.11.42,0,.15.11.21.29.16.46-.03.11-.09.21-.19.27-.41.3-.83.59-1.25.89-.13.09-.27.11-.42.02-.14-.09-.19-.22-.19-.34Z"/>
    </g>
  </g>
</svg>