<svg width="86" height="87" viewBox="0 0 86 87" fill="none" xmlns="http://www.w3.org/2000/svg">
<path d="M42.9363 85.9999C66.1674 85.9999 85 66.8684 85 43.2685C85 19.6686 66.1674 0.537109 42.9363 0.537109C19.7051 0.537109 0.872559 19.6686 0.872559 43.2685C0.872559 66.8684 19.7051 85.9999 42.9363 85.9999Z" stroke="white" stroke-miterlimit="10"/>
<path d="M15 28.2857C15 26.6186 15.6556 25.0198 16.8224 23.841C17.9893 22.6622 19.572 22 21.2222 22H64.7778C66.428 22 68.0107 22.6622 69.1776 23.841C70.3444 25.0198 71 26.6186 71 28.2857V59.7143C71 61.3814 70.3444 62.9802 69.1776 64.159C68.0107 65.3378 66.428 66 64.7778 66H21.2222C19.572 66 17.9893 65.3378 16.8224 64.159C15.6556 62.9802 15 61.3814 15 59.7143V28.2857Z" stroke="white" stroke-width="4" stroke-linecap="round" stroke-linejoin="round"/>
<path d="M15 28.2856L43 47.1428L71 28.2856" stroke="white" stroke-width="4" stroke-linecap="round" stroke-linejoin="round"/>
</svg>
