<?xml version="1.0" encoding="UTF-8"?>
<svg id="Capa_2" data-name="Capa 2" xmlns="http://www.w3.org/2000/svg" viewBox="0 0 100.69 57.53">
  <defs>
    <style>
      .cls-1 {
        fill: #fff;
        stroke-width: 0px;
      }
    </style>
  </defs>
  <g id="Capa_1-2" data-name="Capa 1">
    <g>
      <path class="cls-1" d="M88.05,8.31c.13.07.25.15.38.22.73-.45,1.46-.91,2.43-1.51-.86-.35-1.41-.57-2.11-.85-.26.8-.48,1.47-.7,2.14ZM87.76,4.66c1.68.82,3.03,1.47,4.62,2.24-1.2.74-2.28,1.31-3.25,2.01-.97.71-1.83,1.53-3.04,2.19.54-2.12,1.09-4.24,1.66-6.45"/>
      <path class="cls-1" d="M63.45,5.16c.14.02.29.03.44.05.49-.71.98-1.41,1.63-2.35-.92.02-1.52.04-2.27.05.08.84.14,1.54.2,2.25ZM61.74,1.93c1.86.09,3.37.15,5.13.23-.81,1.15-1.57,2.11-2.19,3.13-.61,1.03-1.08,2.13-1.92,3.21-.34-2.16-.67-4.32-1.02-6.58"/>
      <path class="cls-1" d="M38.44,4.51c.12-.08.24-.16.36-.25-.09-.85-.19-1.71-.31-2.84-.68.62-1.12,1.03-1.68,1.53.61.58,1.12,1.07,1.63,1.56ZM35.02,3.2c1.46-1.16,2.64-2.1,4.02-3.2.14,1.4.2,2.62.41,3.8.22,1.18.59,2.32.66,3.68-1.67-1.41-3.35-2.82-5.1-4.29"/>
      <path class="cls-1" d="M37.82,52.37c-.14-.02-.29-.03-.44-.05-.49.71-.98,1.41-1.63,2.35.92-.02,1.52-.04,2.27-.05-.08-.84-.14-1.54-.2-2.25ZM39.53,55.6c-1.86-.09-3.37-.15-5.13-.23.81-1.15,1.57-2.11,2.19-3.13.61-1.03,1.08-2.13,1.92-3.21.34,2.16.67,4.32,1.02,6.58"/>
      <path class="cls-1" d="M62.83,53.02c-.12.08-.24.16-.36.25.09.85.19,1.71.31,2.84.68-.62,1.12-1.03,1.68-1.53-.61-.58-1.12-1.07-1.63-1.56ZM66.25,54.33c-1.46,1.16-2.64,2.1-4.02,3.2-.14-1.4-.2-2.62-.41-3.8-.22-1.18-.59-2.32-.66-3.68,1.67,1.41,3.35,2.82,5.1,4.29"/>
      <path class="cls-1" d="M95.36,25.88c.83.89,1.79,1.22,2.97,1.36.29-.5.56-.96,1.01-1.76-1.6.16-2.8.28-3.99.4ZM100.69,25.24c-.74.95-1.43,1.83-2.18,2.8-2.18-.25-3.9-1.56-5.95-2.09-.16-.04-.26-.29-.6-.73,3.09.53,5.85-.76,8.73.02"/>
      <path class="cls-1" d="M1.13,30.82c.34.81.62,1.35,1.35,1.07,1.06-.42,2.09-.92,2.82-1.86-1.34.25-2.69.51-4.17.79ZM8.63,29.1c-.79.49-1.57.99-2.38,1.45-1.07.62-2.16,1.23-3.26,1.83-1.02.55-1.34.49-2.07-.32-.22-.24-.41-.51-.58-.78-.11-.17-.18-.37-.35-.72,2.88-.64,5.66-1.26,8.44-1.87.06.14.13.28.19.42"/>
      <path class="cls-1" d="M80.85,47.83c.09,1.23.15,2.06.21,2.89.13.03.26.07.4.1.49-.58.99-1.17,1.55-1.83-.69-.37-1.21-.65-2.16-1.15ZM79.83,45.85c1.64,1.11,2.96,2.01,4.36,2.96-.52.57-1.08,1.14-1.56,1.75-.49.61-.91,1.28-1.52,2.15-1.21-2.33-.72-4.55-1.28-6.86"/>
      <path class="cls-1" d="M15.62,49.92c.14-1.04.66-1.97.02-3.05-.41.91-.83,1.82-1.29,2.85.55.09.86.14,1.28.2ZM16.61,43.47c.15.13.38.24.37.33-.34,2.23.11,4.53-.77,6.84-.94-.08-1.83-.16-2.9-.25,1.14-2.4,2.21-4.64,3.29-6.92"/>
      <path class="cls-1" d="M14.27,8.29c.29,1.12.76,1.89,1.68,2.74.19-1.25.28-2.23-.08-3.35-.57.22-1.02.39-1.61.62ZM13.07,7.97c1.19-.46,2.24-.86,3.5-1.34.55,1.9.19,3.7.32,5.58-2.33-.79-2.99-2.45-3.82-4.24"/>
    </g>
  </g>
</svg>