<?xml version="1.0" encoding="UTF-8"?>
<svg id="Capa_2" data-name="Capa 2" xmlns="http://www.w3.org/2000/svg" viewBox="0 0 129.38 49.74">
  <defs>
    <style>
      .cls-1 {
        fill: #e52421;
        stroke-width: 0px;
      }
    </style>
  </defs>
  <g id="Capa_1-2" data-name="Capa 1">
    <g>
      <path class="cls-1" d="M0,14.92c.18-.04.33.05.47.12.96.46,1.94.87,2.92,1.27,1.28.52,2.59.97,3.91,1.38.76.24,1.53.45,2.31.64.8.2,1.61.37,2.43.51,1,.18,2,.3,3.02.34.08,0,.18-.01.24.08-.02.11-.12.15-.2.2-1.35.84-2.7,1.68-4.05,2.51-.46.28-.91.56-1.37.84-.05.03-.1.06-.15.1-.08.06-.09.12-.02.19.12.13.25.25.36.38.55.62.6,1.55.1,2.18-.46.6-1.22.65-1.76.13-.18-.17-.35-.35-.57-.56-.3.85-.59,1.66-.87,2.47-.29.82-.57,1.64-.86,2.46-.29.8-.54,1.61-.88,2.44-.12-.15-.12-.28-.13-.4-.31-2.89-.97-5.7-1.77-8.49-.64-2.22-1.38-4.41-2.22-6.56-.25-.64-.52-1.28-.78-1.92-.04-.09-.06-.19-.15-.25v-.06Z"/>
      <path class="cls-1" d="M70.31,0c1.25.43,1.32,2,.59,2.69-.25.23-.53.35-.87.36-.15,0-.29,0-.44,0-1.17.03-2.16.45-2.89,1.4-.14.19-.32.34-.54.44-.64.29-1.26-.1-1.5-.55-.34-.64-.33-1.28.1-1.88.6-.83,1.37-1.46,2.3-1.89.61-.28,1.24-.45,1.91-.53.04,0,.07-.02.11-.03.41,0,.82,0,1.23,0Z"/>
      <path class="cls-1" d="M61.06,49.74s-.05-.07-.08-.08c-.6-.31-.94-1.22-.62-2,.22-.55.62-.88,1.22-.9.97-.02,1.92-.15,2.88-.26.46-.05.93-.12,1.38-.23.35-.08.71-.12,1.05.08.18.11.33.24.44.42.47.71.34,1.71-.29,2.2-.16.12-.33.22-.52.25-1,.18-1.99.37-3.01.43-.15.01-.31.02-.46.09h-1.99Z"/>
      <path class="cls-1" d="M129.38,34.41c-.13.45-.42.77-.83,1.01-.67.4-1.34.79-2.02,1.16-.54.3-1.16.16-1.54-.33-.55-.71-.41-1.82.31-2.32.24-.17.52-.3.78-.45.46-.27.93-.53,1.38-.82.64-.41,1.61-.23,1.89.76.01.04.02.07.04.11v.88Z"/>
      <path class="cls-1" d="M84.51,35.44c-.77,1.65-1.7,3.19-2.82,4.61-.14.18-.29.37-.44.54-.58.65-1.51.57-1.94-.2-.37-.66-.34-1.31.12-1.92.31-.41.64-.81.94-1.23.67-.93,1.24-1.91,1.75-2.94.14-.28.32-.53.6-.7.54-.32,1.16-.11,1.49.32.14.18.22.38.33.61.06-.13.11-.22.15-.31.33-.62.99-.96,1.75-.53.47.26.94.51,1.42.76.86.45,1.72.88,2.62,1.22,1.08.4,1.24,1.61.86,2.32-.3.56-.91.9-1.63.58-1.23-.53-2.45-1.11-3.64-1.74-.22-.11-.43-.24-.64-.35-.42-.21-.73-.52-.86-.98,0-.02-.03-.04-.05-.07Z"/>
      <path class="cls-1" d="M87.12,23.74c-.04,1.2-.1,2.39-.27,3.58-.09.64-.19,1.27-.31,1.9-.09.44-.29.81-.7,1.03-.46.25-1,.17-1.37-.21-.39-.41-.54-.9-.44-1.45.12-.69.24-1.38.33-2.08.13-1.07.18-2.13.18-3.21,0-.33.05-.64.21-.93.08-.14.16-.27.28-.37.55-.49,1.29-.42,1.74.17.24.32.33.68.35,1.07,0,.17,0,.33,0,.5Z"/>
      <path class="cls-1" d="M27.54,38.32c0,.2-.06.49-.22.76-.35.62-1.06.85-1.71.46-1.18-.71-2.34-1.43-3.49-2.19-.24-.16-.48-.33-.73-.49-.79-.52-.94-1.74-.23-2.49.35-.38.92-.5,1.39-.21.32.2.64.41.95.62,1.06.7,2.13,1.37,3.22,2.01.55.32.81.79.81,1.53Z"/>
      <path class="cls-1" d="M75.39,1.85c.21-.02.42.08.62.21,1.5.93,2.86,2.03,4.08,3.3.59.61.69,1.39.3,2.09-.43.76-1.37.83-1.91.28-.5-.52-1.02-1.02-1.58-1.48-.66-.55-1.34-1.07-2.09-1.5-.7-.4-1.07-1.56-.39-2.43.23-.3.54-.47.97-.46Z"/>
      <path class="cls-1" d="M86.24,16.76c-.02.35-.11.71-.36,1.02-.47.59-1.27.62-1.79.08-.2-.21-.31-.47-.39-.74-.16-.55-.33-1.1-.52-1.64-.36-1-.78-1.97-1.28-2.92-.14-.27-.27-.54-.29-.85-.03-.53.11-1.01.52-1.37.53-.46,1.24-.38,1.68.18.23.29.37.62.53.94.73,1.47,1.31,3,1.76,4.58.06.22.13.45.13.72Z"/>
      <path class="cls-1" d="M120.75,36.09c.33-.01.58.12.81.33.74.67.64,1.99-.17,2.53-.17.12-.37.16-.56.24-.76.3-1.54.55-2.32.79-.59.18-1.18.35-1.77.51-.14.04-.29.06-.43.09-.47.09-.84-.1-1.13-.45-.53-.64-.43-1.71.18-2.26.17-.16.38-.24.6-.29,1.14-.28,2.25-.63,3.35-1.01.36-.12.71-.25,1.07-.39.13-.05.26-.09.38-.08Z"/>
      <path class="cls-1" d="M63.08,9.65c-.01-.34.08-.66.26-.94.51-.81,1.57-.79,2.06.03.12.2.19.43.23.66.16,1.25.55,2.43,1.07,3.57.19.42.4.82.59,1.24.24.51.2,1.02-.06,1.52-.29.56-.88.81-1.45.62-.34-.12-.57-.37-.73-.68-.44-.83-.82-1.68-1.15-2.56-.37-.99-.63-2.01-.79-3.05-.02-.13-.03-.27-.04-.41Z"/>
      <path class="cls-1" d="M101.59,39.99c-.03.59-.22,1.08-.78,1.38-.22.11-.44.15-.68.11-.39-.06-.77-.12-1.15-.18-1.02-.16-2.03-.39-3.03-.63-.3-.07-.61-.12-.89-.27-.07-.04-.14-.07-.2-.12-.82-.66-.78-2.1.15-2.64.26-.15.53-.19.82-.12.61.16,1.23.31,1.85.44.6.13,1.2.27,1.81.34.29.03.57.12.86.14.83.08,1.2.79,1.25,1.36,0,.06,0,.12,0,.18Z"/>
      <path class="cls-1" d="M77.29,43.69c-.02.41-.19.86-.65,1.18-.93.67-1.9,1.26-2.91,1.79-.53.28-1.06.54-1.6.78-.56.24-1.09.05-1.41-.36-.42-.54-.46-1.34-.11-1.92.16-.26.38-.44.65-.56,1.31-.57,2.54-1.27,3.72-2.07.23-.16.45-.34.72-.43.36-.12.68-.02.96.18.41.3.62.76.62,1.42Z"/>
      <path class="cls-1" d="M68.18,20.15c0-.47.15-.88.51-1.2.46-.42,1.11-.41,1.56.02.27.26.46.58.68.88.85,1.16,1.75,2.27,2.68,3.36.49.57.56,1.21.27,1.88-.19.43-.53.71-1,.76-.4.05-.74-.12-1.01-.42-.54-.62-1.08-1.26-1.59-1.91-.58-.73-1.14-1.48-1.69-2.24-.25-.34-.41-.71-.4-1.14Z"/>
      <path class="cls-1" d="M110.21,38.62c.9-.04,1.34.24,1.58.81.29.7.09,1.53-.48,1.95-.19.14-.41.22-.65.25-.47.05-.95.08-1.42.14-.53.06-1.07.06-1.6.09-.48.02-.95,0-1.43.03-.32.02-.65.02-.94-.15-.72-.43-.96-1.46-.51-2.22.27-.45.65-.68,1.18-.67.87.02,1.73-.03,2.6-.07.65-.03,1.3-.12,1.67-.16Z"/>
      <path class="cls-1" d="M18.58,32.19c.01.2-.08.5-.24.77-.39.66-1.18.82-1.78.35-.48-.38-.96-.76-1.43-1.16-.79-.66-1.57-1.34-2.36-2.01-.39-.33-.65-.72-.69-1.24-.04-.53.12-1.01.52-1.37.47-.42,1.06-.4,1.56.04.35.31.7.62,1.05.92.88.77,1.78,1.51,2.7,2.23.44.34.65.78.66,1.45Z"/>
      <path class="cls-1" d="M47.03,46.36c.01.36-.09.7-.32,1-.28.38-.66.53-1.13.47-.47-.06-.91-.21-1.36-.33-.55-.15-1.1-.31-1.65-.48-.63-.19-1.27-.37-1.89-.6-.52-.19-.78-.63-.87-1.16-.07-.41,0-.82.23-1.18.29-.46.84-.76,1.49-.53.69.24,1.39.45,2.09.65.77.22,1.54.42,2.3.64.77.22,1.11.72,1.11,1.52Z"/>
      <path class="cls-1" d="M76.98,27.14c.28-.03.53.1.76.31,1,.91,2.04,1.78,3.12,2.6.27.21.55.4.81.62.78.64.7,2.02-.16,2.56-.39.24-.8.24-1.19,0-.49-.31-.93-.68-1.38-1.03-.9-.7-1.76-1.44-2.61-2.2-.11-.1-.21-.2-.31-.31-.54-.63-.47-1.87.29-2.37.2-.13.34-.17.67-.18Z"/>
      <path class="cls-1" d="M37.08,42.97c-.02.57-.2,1.02-.63,1.33-.37.26-.77.26-1.17.09-1.48-.62-2.94-1.29-4.39-1.99-1.03-.5-1.09-1.86-.51-2.52.27-.31.79-.57,1.32-.36.32.13.62.29.92.44,1.15.55,2.31,1.08,3.49,1.57.68.28.93.81.97,1.45Z"/>
      <path class="cls-1" d="M55.79,49.64c-.44-.04-.89-.06-1.33-.13-.43-.07-.87-.1-1.3-.16-.65-.09-1.31-.21-1.96-.3-.88-.12-1.24-.81-1.27-1.41-.03-.63.17-1.15.73-1.49.2-.12.42-.17.65-.14.63.09,1.25.2,1.88.29.72.11,1.45.21,2.17.27.26.02.53.03.79.07.4.06.7.29.91.63.38.62.31,1.48-.18,2.01-.28.31-.64.42-1.06.37Z"/>
    </g>
  </g>
</svg>