<svg width="1727" height="2819" viewBox="0 0 1727 2819" fill="none" xmlns="http://www.w3.org/2000/svg">
<mask id="mask0_4332_233" style="mask-type:alpha" maskUnits="userSpaceOnUse" x="0" y="0" width="1727" height="2819">
<rect width="1727" height="2819" fill="#D9D9D9"/>
</mask>
<g mask="url(#mask0_4332_233)">
<rect x="-90" y="516.419" width="2515" height="2152.6" fill="#FF0000"/>
<path d="M2423.47 273.848L2363.6 337.249C2303.73 401.842 2184.34 526.859 2063.9 511.976C1944.69 497.093 1824.77 336.356 1706.08 273.848C1585.64 211.339 1465.21 241.105 1346.52 210.446C1226.6 178.596 1107.39 83.3447 986.951 35.719C867.561 -11.9067 747.822 -11.9067 627.385 35.719C508.519 83.3447 388.257 178.596 269.565 194.372C149.303 211.339 30.437 145.853 -30.6542 115.194L-90 83.3447V750.105H-30.1305C29.7389 750.105 149.129 750.105 269.565 750.105C388.781 750.105 508.694 750.105 627.385 750.105C747.822 750.105 868.259 750.105 986.951 750.105C1106.86 750.105 1226.08 750.105 1346.52 750.105C1465.91 750.105 1585.64 750.105 1706.08 750.105C1824.95 750.105 1945.21 750.105 2063.9 750.105C2184.16 750.105 2303.03 750.105 2364.12 750.105H2423.47V273.848Z" fill="#FF0000"/>
</g>
</svg>
