<svg width="2515" height="5193" viewBox="0 0 2515 5193" fill="none" xmlns="http://www.w3.org/2000/svg">
<rect y="445" width="2515" height="4127" fill="#FF0000"/>
<path d="M1 4849.08L60.8821 4801.68C120.764 4753.4 240.179 4659.95 360.642 4671.08C479.882 4682.2 599.821 4802.35 718.537 4849.08C839 4895.8 959.462 4873.55 1078.18 4896.47C1198.12 4920.28 1317.36 4991.48 1437.82 5027.08C1557.24 5062.68 1677 5062.68 1797.46 5027.08C1916.35 4991.48 2036.64 4920.28 2155.36 4908.48C2275.65 4895.8 2394.54 4944.75 2455.64 4967.67L2515 4991.48V4493.08H2455.12C2395.24 4493.08 2275.82 4493.08 2155.36 4493.08C2036.12 4493.08 1916.18 4493.08 1797.46 4493.08C1677 4493.08 1556.54 4493.08 1437.82 4493.08C1317.88 4493.08 1198.64 4493.08 1078.18 4493.08C958.764 4493.08 839 4493.08 718.537 4493.08C599.646 4493.08 479.358 4493.08 360.642 4493.08C240.354 4493.08 121.462 4493.08 60.3583 4493.08H1V4849.08Z" fill="#FF0000"/>
<g clip-path="url(#clip0_4397_240)">
<path d="M2513.47 294.77L2453.6 334.011C2393.73 373.989 2274.34 451.366 2153.9 442.155C2034.69 432.943 1914.77 333.458 1796.08 294.77C1675.64 256.081 1555.21 274.504 1436.52 255.529C1316.6 235.816 1197.39 176.862 1076.95 147.385C957.561 117.908 837.822 117.908 717.385 147.385C598.519 176.862 478.257 235.816 359.565 245.58C239.303 256.081 120.437 215.55 59.3453 196.575L-0.000457764 176.862V589.539H59.869C119.738 589.539 239.128 589.539 359.565 589.539C478.78 589.539 598.693 589.539 717.385 589.539C837.822 589.539 958.259 589.539 1076.95 589.539C1196.86 589.539 1316.08 589.539 1436.52 589.539C1555.91 589.539 1675.64 589.539 1796.08 589.539C1914.95 589.539 2035.21 589.539 2153.9 589.539C2274.16 589.539 2393.03 589.539 2454.12 589.539H2513.47V294.77Z" fill="#FF0000"/>
</g>
<defs>
<clipPath id="clip0_4397_240">
<rect width="2513.47" height="589.539" fill="white" transform="matrix(-1 0 0 -1 2513.47 589.539)"/>
</clipPath>
</defs>
</svg>
