<svg width="1728" height="1807" viewBox="0 0 1728 1807" fill="none" xmlns="http://www.w3.org/2000/svg">
<rect x="-393" y="445.225" width="2514.92" height="878.168" fill="#FF0000"/>
<g clip-path="url(#clip0_2235_565)">
<path d="M-391.545 1512.23L-331.675 1472.99C-271.806 1433.01 -152.416 1355.63 -31.9791 1364.85C87.2361 1374.06 207.149 1473.54 325.841 1512.23C446.278 1550.92 566.715 1532.5 685.406 1551.47C805.32 1571.18 924.535 1630.14 1044.97 1659.62C1164.36 1689.09 1284.1 1689.09 1404.54 1659.62C1523.4 1630.14 1643.67 1571.18 1762.36 1561.42C1882.62 1550.92 2001.49 1591.45 2062.58 1610.43L2121.92 1630.14V1217.46H2062.05C2002.18 1217.46 1882.79 1217.46 1762.36 1217.46C1643.14 1217.46 1523.23 1217.46 1404.54 1217.46C1284.1 1217.46 1163.66 1217.46 1044.97 1217.46C925.058 1217.46 805.843 1217.46 685.406 1217.46C566.017 1217.46 446.278 1217.46 325.841 1217.46C206.975 1217.46 86.7124 1217.46 -31.9791 1217.46C-152.242 1217.46 -271.108 1217.46 -332.199 1217.46H-391.545V1512.23Z" fill="#FF0000"/>
</g>
<g clip-path="url(#clip1_2235_565)">
<path d="M2120.47 294.77L2060.6 334.011C2000.73 373.989 1881.34 451.366 1760.9 442.155C1641.69 432.943 1521.77 333.458 1403.08 294.77C1282.64 256.081 1162.21 274.504 1043.52 255.529C923.603 235.816 804.388 176.862 683.951 147.385C564.561 117.908 444.823 117.908 324.385 147.385C205.519 176.862 85.257 235.816 -33.4346 245.58C-153.697 256.081 -272.563 215.55 -333.654 196.575L-393 176.862V589.54H-333.13C-273.261 589.54 -153.872 589.54 -33.4346 589.54C85.7806 589.54 205.694 589.54 324.385 589.54C444.823 589.54 565.259 589.54 683.951 589.54C803.864 589.54 923.079 589.54 1043.52 589.54C1162.91 589.54 1282.64 589.54 1403.08 589.54C1521.95 589.54 1642.21 589.54 1760.9 589.54C1881.16 589.54 2000.03 589.54 2061.12 589.54H2120.47V294.77Z" fill="#FF0000"/>
</g>
<defs>
<clipPath id="clip0_2235_565">
<rect width="2513.47" height="589.539" fill="white" transform="translate(-391.545 1217.46)"/>
</clipPath>
<clipPath id="clip1_2235_565">
<rect width="2513.47" height="589.539" fill="white" transform="matrix(-1 0 0 -1 2120.47 589.54)"/>
</clipPath>
</defs>
</svg>
