<svg width="85" height="83" viewBox="0 0 85 83" fill="none" xmlns="http://www.w3.org/2000/svg">
<g clip-path="url(#clip0_2235_626)">
<path d="M42.6618 82.2497C65.5242 82.2497 84.0578 64.015 84.0578 41.5213C84.0578 19.0277 65.5242 0.792969 42.6618 0.792969C19.7994 0.792969 1.26575 19.0277 1.26575 41.5213C1.26575 64.015 19.7994 82.2497 42.6618 82.2497Z" stroke="white" stroke-miterlimit="10"/>
<path fill-rule="evenodd" clip-rule="evenodd" d="M56.218 17.1963H29.0951C23.0389 17.1963 18.0735 22.0816 18.0735 28.0401V55.0118C18.0735 60.9703 23.0389 65.8557 29.0951 65.8557H56.218C62.2742 65.8557 67.2397 60.9703 67.2397 55.0118V28.0401C67.2397 22.0816 62.2742 17.1963 56.218 17.1963ZM62.6897 52.5078C62.6897 57.3523 58.6384 61.3382 53.7146 61.3382H31.6194C26.6747 61.3382 22.6442 57.3523 22.6442 52.5078V30.5544C22.6442 25.6895 26.6747 21.7239 31.6194 21.7239H53.7146C58.6384 21.7239 62.6897 25.6895 62.6897 30.5544V52.5078Z" fill="white"/>
<path d="M42.6618 29.522C35.9408 29.522 30.4767 34.9184 30.4767 41.531C30.4767 48.1436 35.9408 53.5195 42.6618 53.5195C49.3828 53.5195 54.8676 48.1436 54.8676 41.531C54.8676 34.9184 49.3828 29.522 42.6618 29.522ZM42.6618 49.4722C38.2053 49.4722 34.5903 45.9053 34.5903 41.531C34.5903 37.1566 38.2157 33.5897 42.6618 33.5897C47.1078 33.5897 50.7332 37.1566 50.7332 41.531C50.7332 45.9053 47.1078 49.4722 42.6618 49.4722Z" fill="white"/>
<path fill-rule="evenodd" clip-rule="evenodd" d="M56.2907 30.5645C57.6827 30.5645 58.7942 29.4607 58.7942 28.1116C58.7942 26.7625 57.6723 25.6484 56.2907 25.6484C54.9092 25.6484 53.7976 26.7522 53.7976 28.1116C53.7976 29.4709 54.9195 30.5645 56.2907 30.5645Z" fill="white"/>
</g>
<defs>
<clipPath id="clip0_2235_626">
<rect width="83.8308" height="82.4787" fill="white" transform="translate(0.746338 0.281738)"/>
</clipPath>
</defs>
</svg>
