<?xml version="1.0" encoding="utf-8"?>
<!DOCTYPE svg PUBLIC "-//W3C//DTD SVG 1.0//EN" "http://www.w3.org/TR/2001/REC-SVG-20010904/DTD/svg10.dtd">
<svg version="1.0" xmlns="http://www.w3.org/2000/svg" width="148px" height="67px" viewBox="0 0 148 67" preserveAspectRatio="xMidYMid meet">
 <g fill="#000000">
  <path d="M0 33.5 l0 -33.5 74 0 74 0 0 33.5 0 33.5 -53 0 -53 0 0 -2.4 c0 -1.4 1 -3 2.3 -3.8 2.8 -1.9 14.6 -5.5 21.2 -6.5 4.1 -0.7 2.6 -0.9 -7.7 -1.1 -12.5 -0.3 -30.1 1.7 -31.9 3.5 -0.5 0.5 2.3 1.9 6.3 3.2 4 1.3 7.6 2.9 8 3.5 2.3 3.4 1.1 3.6 -19.7 3.6 l-20.5 0 0 -33.5z"/>
 </g>
 <g fill="#ffffff">
  <path d="M26.5 62.2 l-13 -4.6 5.3 -2.4 c6.8 -3.1 19.7 -5.1 34.7 -5.4 l11.9 -0.3 3.4 -5.8 c1.9 -3.2 3.3 -6 3 -6.2 -0.2 -0.3 -2 0.6 -3.8 2 -6.6 4.9 -9.4 2.5 -6.1 -4.9 1.1 -2.5 1.8 -4.6 1.6 -4.6 -0.3 0 -2.3 2.5 -4.5 5.5 -2.6 3.5 -4.8 5.5 -6.1 5.5 -1.6 0 -1.9 -0.4 -1.3 -2.2 0.6 -2.1 0.5 -2 -2.5 0.5 -4.4 3.7 -8.7 3.7 -9.4 0 -0.4 -2.1 0.1 -3.5 2.2 -5.8 1.6 -1.6 3.7 -4.5 4.7 -6.3 1.7 -2.9 4.9 -5 6 -3.9 0.3 0.3 -1.5 3.8 -4 7.8 -2.5 4.1 -4 7.6 -3.5 7.8 1.6 0.5 8.3 -4.6 10.3 -7.9 1 -1.7 1.6 -4 1.3 -5.1 -0.4 -1.6 0 -1.9 2.5 -1.9 2.8 0 2.9 0.2 2.3 3.2 l-0.8 3.2 3.6 -3.1 c3.6 -3.1 7.4 -4.9 8.4 -4 0.3 0.3 -1.4 4 -3.7 8.1 -2.3 4.2 -3.9 7.6 -3.5 7.6 2.4 0 9.9 -6.8 12 -10.9 2.4 -4.8 6.5 -7.6 6.5 -4.4 0 1.1 0.5 1.3 1.8 0.8 3.9 -1.7 7.2 -1.7 7.8 -0.1 0.9 2.2 -1.4 7.3 -5.1 11.5 -2.4 2.7 -2.6 3.2 -0.8 2.3 3.9 -2.1 9 -9.2 15.2 -21.2 5.4 -10.5 6.5 -12 8.7 -12 2.5 0 2.4 0.2 -3.8 11.8 -9.3 17.3 -11.1 21.2 -10.5 21.9 1.1 1 6 -2.7 11.1 -8.5 6.1 -6.6 13.6 -10.4 13.6 -6.7 0 0.7 0.7 1.8 1.5 2.2 1.3 0.7 1 1.8 -1.9 6.3 -1.9 3 -3.3 5.6 -3.1 5.8 0.9 0.9 6.6 -4.2 10 -8.8 2.6 -3.6 4.4 -5 6 -5 2.4 0 2.4 0 -1.2 6 -2 3.3 -3.3 6.3 -3.1 6.6 0.5 0.5 5.3 -4.5 9.5 -9.9 1.4 -1.8 2.9 -2.7 4.2 -2.5 1.9 0.3 1.9 0.5 -0.9 5.1 -3.1 4.8 -3 5.7 0.4 3.2 3 -2.3 4.9 -1.9 4 0.8 -1.2 3.8 -6.1 9.2 -12 13.3 -3.2 2.2 -6.6 5.7 -8.1 8.1 -1.9 3.3 -3.1 4.3 -5 4.3 -2.5 0 -2.5 -0.1 -0.9 -2.5 2.2 -3.4 2 -3.8 -1.6 -3.1 -1.8 0.3 -8.5 0.8 -14.8 1.1 -27.6 1.2 -36.8 2.2 -48.5 5.7 -3.8 1.1 -8.4 3.1 -10.2 4.4 -1.7 1.3 -4 2.3 -5 2.3 -1 -0.1 -7.6 -2.2 -14.8 -4.7z m94.4 -11.9 c3.8 -0.5 4.7 -1.1 7.2 -5.1 3.6 -5.6 3.7 -6.7 0.4 -4.6 -2.8 1.8 -5.5 1.3 -5.5 -1.1 0 -2 -0.6 -1.9 -3.9 0.4 -3.7 2.7 -6.6 3.1 -6.5 0.9 0.2 -2.2 -0.5 -2.2 -3.5 -0.1 -2.2 1.5 -2.5 1.5 -3.7 -0.2 -0.7 -1 -1.1 -2.2 -0.8 -2.6 0.9 -1.5 -0.6 -1 -3.5 1.2 -1.7 1.3 -3.9 1.9 -5.7 1.7 -2.4 -0.2 -2.9 -0.7 -2.6 -2.8 l0.3 -2.4 -2.9 2.7 c-2.4 2.3 -3.7 2.7 -8.5 2.7 -5.5 0 -5.7 0.1 -8.3 4 -1.5 2.2 -2.5 4.3 -2.2 4.5 0.8 0.8 33.7 2.3 39.8 1.9 3 -0.3 7.5 -0.7 9.9 -1.1z m18.6 -10.3 c3.6 -3.7 3.8 -4 1.5 -3.7 -1.4 0.2 -3.3 1.8 -4.7 4 -3.1 4.8 -1.7 4.7 3.2 -0.3z m-55.6 -4.1 c2 -1.9 5.1 -7.6 5.1 -9.4 0 -0.3 -0.6 -0.5 -1.4 -0.5 -2.4 0 -6.4 4.2 -8.1 8.3 -1.4 3.5 -1.4 3.7 0.3 3.7 1 0 2.9 -1 4.1 -2.1z m34.7 -6.1 c1.7 -3.2 1.8 -6.2 0.3 -5.2 -1.7 1 -6.9 9.6 -6.9 11.3 0 1.9 4.7 -2.4 6.6 -6.1z"/>
  <path d="M25 40.9 c0 -0.4 3.2 -5.9 7.1 -12.1 11.1 -17.6 10.7 -16.4 5.7 -18.9 -7.2 -3.7 -16.7 -6.9 -20.4 -6.9 -4.4 0 -8.4 2 -11.8 6 -3.2 3.9 -3.3 7.4 -0.4 9.4 3 2.1 5.6 2 10.2 -0.5 5.2 -2.8 5.5 -1.9 0.4 1.4 -7.5 4.8 -14.8 2.8 -14.8 -4 0 -3.1 0.8 -4.4 4.8 -8.3 7.2 -7 15.5 -8.6 27.7 -5.5 7 1.9 17.7 7.4 17.2 8.9 -0.2 0.6 -1.4 1.6 -2.6 2.2 -1.2 0.6 -5.2 6.3 -8.8 12.5 -3.6 6.3 -7.4 12.4 -8.5 13.6 -2.1 2.2 -5.8 3.7 -5.8 2.2z"/>
  <path d="M54.5 16.7 c-0.9 -2.1 1.9 -6.7 4 -6.7 2.2 0 1.8 2.5 -0.9 5.7 -2.2 2.5 -2.5 2.6 -3.1 1z"/>
 </g>
</svg>