<svg width="1727" height="1654" viewBox="0 0 1727 1654" fill="none" xmlns="http://www.w3.org/2000/svg">
<mask id="mask0_4332_233" style="mask-type:alpha" maskUnits="userSpaceOnUse" x="0" y="0" width="1727" height="1654">
<rect width="1727" height="1654" fill="#D9D9D9"/>
</mask>
<g mask="url(#mask0_4332_233)">
<rect x="-90" y="303" width="2515" height="1263" fill="#FF0000"/>
<path d="M2423.47 160.675L2363.6 197.875C2303.73 235.774 2184.34 309.126 2063.9 300.393C1944.69 291.661 1824.77 197.351 1706.08 160.675C1585.64 124 1465.21 141.464 1346.52 123.476C1226.6 104.788 1107.39 48.9011 986.951 20.9576C867.561 -6.98602 747.822 -6.98602 627.385 20.9576C508.519 48.9011 388.257 104.788 269.565 114.045C149.303 124 30.437 85.5771 -30.6542 67.5884L-90 48.9011V440.111H-30.1305C29.7389 440.111 149.129 440.111 269.565 440.111C388.781 440.111 508.694 440.111 627.385 440.111C747.822 440.111 868.259 440.111 986.951 440.111C1106.86 440.111 1226.08 440.111 1346.52 440.111C1465.91 440.111 1585.64 440.111 1706.08 440.111C1824.95 440.111 1945.21 440.111 2063.9 440.111C2184.16 440.111 2303.03 440.111 2364.12 440.111H2423.47V160.675Z" fill="#FF0000"/>
</g>
</svg>
