<?xml version="1.0" encoding="UTF-8"?>
<svg id="Capa_2" data-name="Capa 2" xmlns="http://www.w3.org/2000/svg" viewBox="0 0 78.45 61.91">
  <defs>
    <style>
      .cls-1 {
        fill: #fff;
        stroke-width: 0px;
      }
    </style>
  </defs>
  <g id="Capa_1-2" data-name="Capa 1">
    <g>
      <path class="cls-1" d="M37.53,53.18c-2.63-.04-5.24-.42-7.77-1.25-2.09-.69-4.08-1.6-5.91-2.85-.27-.19-.48-.18-.76.03-2.17,1.59-4.4,3.08-6.63,4.58-1.41.95-2.84,1.87-4.28,2.77-2.38,1.48-4.78,2.93-7.29,4.18-.84.42-1.69.79-2.59,1.08-.45.14-.91.21-1.38.19-.71-.04-1.13-.7-.82-1.33.36-.75.72-1.5,1.25-2.15,1.08-1.33,2.18-2.63,3.39-3.85.58-.59,1.16-1.18,1.74-1.78.83-.87,1.72-1.69,2.61-2.51.55-.51,1.09-1.03,1.63-1.56,1.25-1.21,2.57-2.34,3.84-3.53.78-.74,1.61-1.43,2.43-2.12.26-.22.3-.37.11-.67-.89-1.35-1.58-2.79-2.19-4.28-.71-1.74-1.07-3.54-1.29-5.38-.38-3.26-.03-6.46,1.02-9.56.4-1.19.88-2.36,1.51-3.45.79-1.36,1.65-2.67,2.69-3.85,1.45-1.65,3.09-3.1,4.94-4.31,1.59-1.03,3.26-1.89,5.03-2.54,2.07-.76,4.2-1.23,6.4-1.45,3.6-.36,7.1.09,10.52,1.22,1.31.43,2.56.99,3.78,1.65,1.58.86,3.06,1.86,4.4,3.06.26.23.43.06.61-.06.51-.34.98-.72,1.49-1.06,1.21-.81,2.38-1.67,3.58-2.49,1.74-1.18,3.47-2.37,5.26-3.48.54-.34,1.06-.7,1.6-1.04,2.13-1.35,4.28-2.65,6.52-3.81,1.2-.62,2.41-1.22,3.74-1.51.32-.07.64-.09.97-.03.54.1.86.55.76,1.08-.1.53-.31,1.01-.65,1.44-.2.25-.35.54-.54.81-1.09,1.54-2.4,2.89-3.68,4.27-.88.95-1.81,1.86-2.74,2.75-1.46,1.4-2.94,2.78-4.42,4.16-1,.93-2.01,1.84-3.03,2.74-1.19,1.04-2.39,2.07-3.6,3.09-.25.21-.3.4-.15.69,1.08,2.16,1.68,4.46,1.91,6.86.34,3.4,0,6.75-1.19,9.97-.38,1.03-.81,2.05-1.36,3.01-.85,1.46-1.8,2.86-2.92,4.12-.91,1.03-1.91,1.99-2.99,2.83-3.18,2.46-6.75,4.1-10.71,4.86-1.59.3-3.18.45-4.83.47ZM14.3,30.8c.06,1.22.19,2.91.64,4.58.65,2.45,1.61,4.72,3.05,6.81.87,1.25,1.81,2.43,2.92,3.48.84.8.51.74,1.51.1,1.46-.94,2.88-1.95,4.3-2.95,1.52-1.07,3.02-2.16,4.51-3.26,1.44-1.06,2.88-2.13,4.3-3.21,1.48-1.12,2.95-2.25,4.4-3.4,1.49-1.17,2.97-2.35,4.44-3.54,1.47-1.19,2.94-2.39,4.39-3.6,1.46-1.22,2.92-2.45,4.36-3.7,1.27-1.11,2.5-2.26,3.76-3.38.21-.19.23-.31.07-.55-.8-1.19-1.74-2.25-2.77-3.25-1.37-1.35-2.9-2.47-4.55-3.44-1.21-.71-2.49-1.3-3.81-1.77-3.44-1.22-6.98-1.65-10.61-1.31-2.58.25-5.06.9-7.43,1.92-1.53.66-2.97,1.49-4.32,2.46-1.7,1.21-3.19,2.66-4.5,4.28-1.12,1.39-2.01,2.93-2.78,4.53-.69,1.43-1.08,2.97-1.46,4.51-.34,1.37-.44,2.79-.42,4.7ZM60.82,30.76c-.01-2.44-.21-4.39-.84-6.28-.32-.97-.62-1.95-1.02-2.9-.12-.28-.21-.34-.46-.11-.94.86-1.93,1.65-2.9,2.47-1.43,1.22-2.89,2.41-4.34,3.6-1.46,1.2-2.94,2.39-4.41,3.58-1.51,1.21-3.02,2.41-4.54,3.61-1.4,1.1-2.8,2.19-4.21,3.27-1.51,1.16-3.02,2.32-4.55,3.47-.92.69-1.85,1.38-2.78,2.07-2.05,1.54-4.13,3.05-6.23,4.53-.28.2-.31.3,0,.5,1.86,1.17,3.83,2.08,5.93,2.72,2.12.65,4.3.98,6.51,1.05,1.3.04,2.59-.05,3.88-.23,3.37-.45,6.5-1.58,9.4-3.33,1.57-.95,2.99-2.1,4.29-3.4,1.12-1.12,2.1-2.37,2.96-3.7.53-.81.97-1.69,1.4-2.56.64-1.3,1.02-2.7,1.39-4.08.41-1.54.55-3.14.52-4.29ZM17.02,44.17c-.19.18-.37.37-.57.53-1.67,1.38-3.22,2.89-4.84,4.33-.82.73-1.57,1.55-2.39,2.28-.55.49-1.03,1.06-1.58,1.56-1.15,1.05-2.2,2.2-3.26,3.33-1.02,1.09-1.97,2.24-2.84,3.45-.25.35-.45.73-.59,1.14-.1.29,0,.39.29.38.3-.01.59-.06.88-.15,2.02-.67,3.86-1.73,5.69-2.78,1.43-.82,2.84-1.68,4.22-2.57,2.06-1.33,4.1-2.69,6.13-4.06,1.4-.94,2.78-1.91,4.16-2.88,2.01-1.43,4.01-2.87,6-4.32,1.43-1.04,2.84-2.09,4.25-3.15,2.05-1.55,4.08-3.12,6.12-4.68.9-.69,1.79-1.38,2.67-2.07,1.53-1.2,3.06-2.4,4.57-3.63.93-.75,1.85-1.5,2.78-2.25,1.5-1.2,2.98-2.42,4.45-3.66.96-.81,1.93-1.62,2.89-2.42,1.52-1.28,3.02-2.58,4.51-3.88.93-.81,1.86-1.62,2.77-2.45,1.49-1.35,2.99-2.69,4.45-4.07.84-.79,1.68-1.58,2.49-2.41.53-.55,1.07-1.09,1.62-1.62,1.34-1.3,2.62-2.66,3.8-4.11.61-.75,1.28-1.47,1.66-2.39.09-.22.3-.48.1-.68-.18-.19-.47-.07-.71-.02-.87.2-1.67.57-2.46.95-1.88.89-3.67,1.94-5.44,3.02-2.55,1.55-5.04,3.19-7.52,4.86-.89.6-1.78,1.21-2.67,1.82-.46.32-.9.65-1.35.98.62-.33,1.21-.71,1.8-1.08,1.25-.78,2.52-1.5,3.83-2.16.71-.35,1.43-.67,2.21-.85.47-.11.93-.11,1.26.28.35.42.08.86-.1,1.28-.02.04-.04.07-.06.1-.94,1.44-2.07,2.71-3.27,3.94-1.41,1.45-2.88,2.84-4.36,4.22-1.04.98-2.1,1.93-3.17,2.88-.81.71-1.6,1.44-2.42,2.14-1.09.93-2.21,1.84-3.31,2.77-.83.7-1.65,1.42-2.5,2.11-1.61,1.31-3.24,2.59-4.86,3.89-.92.74-1.85,1.46-2.78,2.19-1.49,1.17-2.99,2.32-4.5,3.46-.96.73-1.93,1.45-2.9,2.17-1.49,1.11-2.99,2.19-4.5,3.27-1.41,1-2.83,1.98-4.25,2.95-1.99,1.35-4,2.65-6.07,3.87-1.21.72-2.43,1.39-3.72,1.96-.48.21-.98.41-1.52.48-.4.06-.76.04-1.03-.29-.29-.34-.17-.71-.02-1.06.25-.61.67-1.1,1.05-1.62.76-1.03,1.65-1.94,2.53-2.85.78-.81,1.54-1.65,2.38-2.41ZM57.88,17.81s.1-.09.16-.14c.78-.73,1.57-1.43,2.32-2.18,1.19-1.21,2.41-2.39,3.53-3.67.24-.27.44-.59.69-.84.4-.4.69-.87.94-1.37.05-.1.15-.22.07-.33-.09-.12-.22-.02-.32,0-.84.16-1.59.57-2.33.95-2.55,1.32-4.95,2.89-7.36,4.44-.21.13-.23.24-.05.42.34.33.69.66.97,1.05.38.51.77,1.01,1.17,1.51.05.07.08.17.22.17ZM11.93,51.61c.31-.04.6-.15.9-.25,1.34-.5,2.57-1.22,3.81-1.94,1.37-.79,2.71-1.63,4.03-2.5.19-.12.17-.18.02-.3-.72-.58-1.3-1.3-1.92-1.98-.41-.45-.38-.47-.86-.07-.1.08-.21.15-.3.24-1.21,1.21-2.44,2.4-3.59,3.67-.24.27-.47.55-.72.82-.61.63-1.04,1.38-1.49,2.13-.06.11-.05.21.12.18Z"/>
      <path class="cls-1" d="M64.21,19.99c1.02,0,1.79.73,1.79,1.71,0,.98-.8,1.74-1.81,1.74-1.01,0-1.82-.78-1.81-1.75,0-.97.8-1.7,1.84-1.7ZM64.2,22.58c.58,0,.97-.37.97-.89,0-.54-.42-.9-1.01-.89-.5,0-.89.4-.88.89,0,.51.4.89.93.88Z"/>
      <path class="cls-1" d="M44.97,5.54c0-.77.61-1.34,1.42-1.34.84,0,1.45.59,1.44,1.4-.01.79-.62,1.35-1.46,1.33-.84-.01-1.4-.57-1.4-1.4ZM46.93,5.58c0-.32-.21-.53-.53-.53-.33,0-.5.18-.52.5-.02.32.2.55.51.56.3,0,.54-.22.54-.53Z"/>
      <path class="cls-1" d="M10.76,44.39c.67,0,1.29.59,1.28,1.21-.01.59-.65,1.17-1.28,1.17-.7,0-1.27-.55-1.25-1.22.02-.66.56-1.17,1.26-1.16Z"/>
    </g>
  </g>
</svg>