<?xml version="1.0" encoding="UTF-8"?>
<svg id="Capa_2" data-name="Capa 2" xmlns="http://www.w3.org/2000/svg" viewBox="0 0 370.9 25.74">
  <defs>
    <style>
      .cls-1 {
        fill: #e52421;
        stroke-width: 0px;
      }
    </style>
  </defs>
  <g id="Capa_1-2" data-name="Capa 1">
    <path class="cls-1" d="M154,7.86c4.47-.16,8.48-.28,12.49-.47,4.81-.22,9.62-.33,14.43-.46,3.37-.09,6.73-.04,10.09-.19,5.1-.23,10.2-.09,15.3-.22,2.49-.06,4.99-.15,7.47-.08,2.53.07,5.06-.22,7.58.06.68.08,1.37-.04,2.06-.03,5.03.06,10.06.09,15.09.09,4.27,0,8.54.18,12.81.25,4.59.08,9.19.27,13.78.45,4.3.17,8.6.31,12.9.58,2.92.18,5.85.28,8.78.46,4.08.25,8.15.6,12.24.81,3.51.18,7,.49,10.5.74,2.77.19,5.56.37,8.32.73,1.97.26,3.96.4,5.94.52,2.49.15,4.97.49,7.45.71,2.16.19,4.32.4,6.48.61,3.13.31,6.27.63,9.4.95,2.59.26,5.18.52,7.77.81,2.77.31,5.53.64,8.3.97,2.01.24,4.02.5,6.04.71,1.12.12,1.22.03,1.36-1.1.13-1.08.23-2.16.32-3.24.06-.78-.12-1.04-.93-1.19-1.07-.2-2.14-.4-3.22-.49-2.92-.27-5.8-.82-8.7-1.21-2.22-.29-4.45-.53-6.67-.8-2.55-.32-5.1-.66-7.65-.97-3.23-.39-6.46-.76-9.71-1.04-2.05-.18-4.09-.5-6.15-.67-1.76-.15-3.52-.38-5.28-.55-1.87-.18-3.75-.34-5.62-.5-2.99-.27-5.98-.53-8.98-.72-2.99-.2-5.98-.48-8.98-.7-1.98-.15-3.97-.24-5.96-.36-2.74-.17-5.49-.35-8.23-.51-1.41-.08-2.82-.18-4.23-.21-2.24-.06-4.49-.17-6.72-.33-2.53-.18-5.07-.03-7.59-.33-.93-.11-1.88,0-2.82-.05-2.75-.12-5.49-.28-8.24-.38-1.74-.06-3.47-.01-5.21-.06-4.99-.14-9.98-.25-14.97-.24-2.2,0-4.41.05-6.61-.05-5.07-.22-10.13-.14-15.2-.09-4.59.04-9.19.17-13.78.16-.58,0-1.16,0-1.72.18-.72.22-1.4-.15-2.13-.12-3.94.12-7.89.09-11.83.21-4.99.14-9.98.29-14.96.46-4.81.16-9.62.42-14.43.61-4.19.17-8.38.42-12.57.67-4.4.27-8.81.55-13.21.88-3.86.29-7.71.71-11.56.97-3.83.26-7.65.61-11.46.99-3.13.31-6.27.52-9.39.95-1.86.25-3.75.31-5.62.53-3.38.38-6.75.79-10.13,1.19-3.3.4-6.61.76-9.91,1.22-6.56.92-13.13,1.76-19.65,2.94-5.63,1.02-11.28,1.89-16.89,2.99-5.25,1.03-10.52,2.06-15.71,3.38-5.22,1.33-10.44,2.7-15.61,4.23-.49.14-.97.3-1.44.49-.37.14-.72.33-.98.66-.38.5-.35.61.15,1.02,1.08.85,2.29,1.18,3.65,1.08,3.15-.24,6.23-.86,9.33-1.45,7.25-1.38,14.46-3,21.75-4.19,3.93-.64,7.85-1.29,11.78-1.92,3.14-.5,6.3-.92,9.44-1.45,3.68-.61,7.37-1.08,11.07-1.58,4.62-.62,9.27-1.11,13.9-1.64,3.74-.43,7.47-.85,11.22-1.23,2.66-.27,5.33-.48,8-.72,3.82-.34,7.64-.68,11.46-1,2.27-.19,4.55-.34,6.82-.53,3.32-.28,6.64-.45,9.95-.76,2.74-.26,5.49-.37,8.23-.53,3.83-.22,7.65-.45,11.48-.62,1.99-.09,3.97-.35,5.51-.26Z"/>
  </g>
</svg>