<svg width="86" height="87" viewBox="0 0 86 87" fill="none" xmlns="http://www.w3.org/2000/svg">
<path d="M68.4 22.8495C68.7356 23.0645 69.0544 23.3203 69.3564 23.617C70.454 24.695 71.0019 25.9893 71 27.5V60.5C71 62.0125 70.4521 63.3077 69.3564 64.3857C68.2607 65.4637 66.9419 66.0018 65.4 66L68.4 22.8495ZM68.4 22.8495C68.2027 22.723 67.9995 22.6107 67.7906 22.5125L65.4 23.9799L63.8306 24.9433L63.7382 25H63.8654H65.4C66.1546 25 66.7183 25.2309 67.2543 25.7573C67.7885 26.2821 68.0009 26.8085 68 27.4963V27.5V33V34.9241L68.4 34.6786V33V27.5V27.4968V24.5908V22.8495ZM20.6021 25C19.8483 25.0012 19.2836 25.2327 18.7467 25.7591C18.214 26.2814 18 26.8081 18 27.5V33V34.9241L17.6 34.6786V33V27.5V24.5896V22.8522C17.7981 22.7252 18.002 22.6124 18.2117 22.5138L20.6 23.9799M20.6021 25H22.1346H22.2619L22.1694 24.9433L20.6024 23.9813M20.6021 25H20.6V23.9799M20.6021 25C20.6026 25 20.6031 25 20.6036 25L20.6024 23.9813M20.6024 23.9813L20.6 22V23.9799M20.6024 23.9813L20.6 23.9799M20.6 27.5H23.6V29.3415L20.6 27.5ZM20.6 27.5L19.0306 30.0567L20.6 31.0201V27.5ZM65.4 27.5V31.0201L66.9694 30.0567L65.4 27.5ZM65.4 27.5H62.4V29.3415L65.4 27.5ZM43 37.7299L41.4306 38.6933L43 41.25L44.5694 38.6933L43 37.7299ZM18 60.5V60.4979C18 60.4974 18 60.4968 18 60.4963L15.0016 60.5H18Z" stroke="white" stroke-width="6"/>
<path d="M43.0637 86.4628C66.2949 86.4628 85.1274 67.3313 85.1274 43.7314C85.1274 20.1315 66.2949 1 43.0637 1C19.8326 1 1.00002 20.1315 1.00002 43.7314C1.00002 67.3313 19.8326 86.4628 43.0637 86.4628Z" stroke="white" stroke-miterlimit="10"/>
</svg>
