<?xml version="1.0" encoding="UTF-8"?>
<svg id="Capa_2" data-name="Capa 2" xmlns="http://www.w3.org/2000/svg" viewBox="0 0 49.76 38.34">
  <defs>
    <style>
      .cls-1 {
        fill: #e52421;
        stroke-width: 0px;
      }
    </style>
  </defs>
  <g id="Capa_1-2" data-name="Capa 1">
    <g>
      <path class="cls-1" d="M31.44,5.97c-.51-1.43-.98-2.7-1.41-3.99-.06-.17.1-.41.19-.78,2.18-.91,3.24,1.12,5.06,1.97.36-.99.72-1.97,1.08-2.92,3.08-.56,3.35-.37,3.44,2.33.03.76.13,1.51.19,2.24,1.46.52,2.74.97,3.92,1.4.16,1.84-1.13,2.5-2.18,3.02-1.77.88-2.63,2.06-2.65,3.97,0,.74-.44,1.48-.66,2.18-1.7.15-2.18-1.04-2.53-2.03-.58-1.63-1.58-2.29-3.36-2.31-1.29-.01-3.11.63-3.65-1.12-.47-1.51.92-2.4,2.02-3.26.17-.13.27-.35.53-.7"/>
      <path class="cls-1" d="M3.64,24.87c-.71-1.77-1.35-3.33-1.94-4.91-.08-.21.13-.51.27-.96,3-1.12,4.45,1.37,6.96,2.43.5-1.22.99-2.42,1.48-3.6,4.24-.69,4.61-.45,4.74,2.87.04.93.18,1.86.26,2.76,2.01.64,3.76,1.2,5.4,1.72.21,2.26-1.56,3.08-2.99,3.72-2.43,1.08-3.61,2.54-3.64,4.89-.01.91-.6,1.82-.91,2.69-2.34.19-2.99-1.28-3.48-2.5-.8-2.01-2.18-2.82-4.63-2.84-1.77-.01-4.27.78-5.01-1.38-.64-1.86,1.26-2.96,2.77-4.02.24-.16.37-.43.73-.86"/>
      <path class="cls-1" d="M38.7,31.4c-.46-1.06-.87-1.99-1.25-2.93-.05-.13.09-.3.17-.57,1.93-.67,2.86.82,4.48,1.45.32-.73.64-1.45.95-2.15,2.73-.41,2.97-.27,3.05,1.71.02.56.11,1.11.17,1.65,1.3.38,2.42.72,3.47,1.03.14,1.35-1,1.84-1.93,2.22-1.56.65-2.32,1.52-2.35,2.92,0,.54-.39,1.09-.59,1.61-1.51.11-1.93-.76-2.24-1.49-.52-1.2-1.4-1.68-2.98-1.7-1.14,0-2.75.46-3.23-.82-.41-1.11.81-1.77,1.79-2.4.15-.1.24-.26.47-.52"/>
    </g>
  </g>
</svg>