<svg width="86" height="87" viewBox="0 0 86 87" fill="none" xmlns="http://www.w3.org/2000/svg">
<g clip-path="url(#clip0_2235_633)">
<path d="M42.5915 86.2806C65.8226 86.2806 84.6552 67.1491 84.6552 43.5493C84.6552 19.9494 65.8226 0.817871 42.5915 0.817871C19.3603 0.817871 0.527771 19.9494 0.527771 43.5493C0.527771 67.1491 19.3603 86.2806 42.5915 86.2806Z" stroke="white" stroke-miterlimit="10"/>
<path d="M52.6247 48.422C52.1927 48.2022 49.3845 46.8839 48.9525 46.6642C48.5205 46.4444 48.0884 46.4444 47.6564 46.8839C47.2244 47.3233 46.3603 48.6417 45.9283 49.0811C45.7123 49.5206 45.2803 49.5206 44.8483 49.3009C43.3362 48.6417 41.8241 47.7628 40.528 46.6642C39.4479 45.5655 38.3679 44.2472 37.5038 42.9288C37.2878 42.4894 37.5038 42.0499 37.7199 41.8302C37.9359 41.6105 38.1519 41.171 38.5839 40.9513C38.7999 40.7316 39.0159 40.2921 39.0159 40.0724C39.2319 39.8527 39.2319 39.4132 39.0159 39.1935C38.7999 38.9738 37.7199 36.3371 37.2878 35.2385C37.0718 33.7004 36.6398 33.7004 36.2078 33.7004H35.1277C34.6957 33.7004 34.0476 34.1398 33.8316 34.3596C32.5356 35.6779 31.8875 37.216 31.8875 38.9738C32.1035 40.9513 32.7516 42.9288 34.0476 44.6866C36.4238 48.2022 39.4479 51.0587 43.1202 52.8165C44.2002 53.2559 45.0643 53.6954 46.1443 53.9151C47.2244 54.3546 48.3044 54.3546 49.6005 54.1348C51.1126 53.9151 52.4087 52.8165 53.2727 51.4981C53.7048 50.6192 53.7048 49.7403 53.4887 48.8614L52.6247 48.422ZM58.025 28.427C49.6005 19.8577 35.9918 19.8577 27.5673 28.427C20.6549 35.4582 19.3588 46.2247 24.1111 54.794L21.0869 66L32.5356 62.9238C35.7757 64.6816 39.2319 65.5605 42.6881 65.5605C54.5688 65.5605 64.0733 55.8926 64.0733 43.8077C64.2893 38.0949 61.9132 32.6017 58.025 28.427ZM52.1927 59.1885C49.3845 60.9463 46.1443 62.0449 42.6881 62.0449C39.4479 62.0449 36.4238 61.166 33.6156 59.628L32.9676 59.1885L26.2712 60.9463L27.9993 54.3546L27.5673 53.6954C22.383 44.9064 24.9751 33.9201 33.3996 28.427C41.8241 22.9338 52.6247 25.7903 57.809 34.1398C62.9933 42.7091 60.6171 53.9151 52.1927 59.1885Z" fill="white"/>
</g>
<defs>
<clipPath id="clip0_2235_633">
<rect width="85.183" height="86.5351" fill="white" transform="translate(0 0.281738)"/>
</clipPath>
</defs>
</svg>
