<svg width="63" height="63" viewBox="0 0 63 63" fill="none" xmlns="http://www.w3.org/2000/svg">
<path d="M45.625 37.5781C45 37.2656 40.9375 35.3906 40.3125 35.0781C39.6875 34.7656 39.0625 34.7656 38.4375 35.3906C37.8125 36.0156 36.5625 37.8906 35.9375 38.5156C35.625 39.1406 35 39.1406 34.375 38.8281C32.1875 37.8906 30 36.6406 28.125 35.0781C26.5625 33.5156 25 31.6406 23.75 29.7656C23.4375 29.1406 23.75 28.5156 24.0625 28.2031C24.375 27.8906 24.6875 27.2656 25.3125 26.9531C25.625 26.6406 25.9375 26.0156 25.9375 25.7031C26.25 25.3906 26.25 24.7656 25.9375 24.4531C25.625 24.1406 24.0625 20.3906 23.4375 18.8281C23.125 16.6406 22.5 16.6406 21.875 16.6406H20.3125C19.6875 16.6406 18.75 17.2656 18.4375 17.5781C16.5625 19.4531 15.625 21.6406 15.625 24.1406C15.9375 26.9531 16.875 29.7656 18.75 32.2656C22.1875 37.2656 26.5625 41.3281 31.875 43.8281C33.4375 44.4531 34.6875 45.0781 36.25 45.3906C37.8125 46.0156 39.375 46.0156 41.25 45.7031C43.4375 45.3906 45.3125 43.8281 46.5625 41.9531C47.1875 40.7031 47.1875 39.4531 46.875 38.2031L45.625 37.5781ZM53.4375 9.14063C41.25 -3.04688 21.5625 -3.04688 9.375 9.14063C-0.625 19.1406 -2.5 34.4531 4.375 46.6406L0 62.5781L16.5625 58.2031C21.25 60.7031 26.25 61.9531 31.25 61.9531C48.4375 61.9531 62.1875 48.2031 62.1875 31.0156C62.5 22.8906 59.0625 15.0781 53.4375 9.14063ZM45 52.8906C40.9375 55.3906 36.25 56.9531 31.25 56.9531C26.5625 56.9531 22.1875 55.7031 18.125 53.5156L17.1875 52.8906L7.5 55.3906L10 46.0156L9.375 45.0781C1.875 32.5781 5.625 16.9531 17.8125 9.14063C30 1.32813 45.625 5.39063 53.125 17.2656C60.625 29.4531 57.1875 45.3906 45 52.8906Z" fill="#00C307"/>
</svg>
