<svg width="16" height="16" viewBox="0 0 16 16" fill="none" xmlns="http://www.w3.org/2000/svg">
<path d="M2.14565 2.8539C2.09917 2.80741 2.06229 2.75222 2.03713 2.69148C2.01197 2.63074 1.99902 2.56564 1.99902 2.4999C1.99902 2.43416 2.01197 2.36906 2.03713 2.30832C2.06229 2.24758 2.09917 2.19239 2.14565 2.1459C2.19214 2.09941 2.24733 2.06254 2.30807 2.03738C2.36881 2.01222 2.43391 1.99927 2.49966 1.99927C2.5654 1.99927 2.6305 2.01222 2.69124 2.03738C2.75198 2.06254 2.80717 2.09941 2.85366 2.1459L7.99965 7.2929L13.1457 2.1459C13.1921 2.09941 13.2473 2.06254 13.3081 2.03738C13.3688 2.01222 13.4339 1.99927 13.4997 1.99927C13.5654 1.99927 13.6305 2.01222 13.6912 2.03738C13.752 2.06254 13.8072 2.09941 13.8537 2.1459C13.9001 2.19239 13.937 2.24758 13.9622 2.30832C13.9873 2.36906 14.0003 2.43416 14.0003 2.4999C14.0003 2.56564 13.9873 2.63074 13.9622 2.69148C13.937 2.75222 13.9001 2.80741 13.8537 2.8539L8.70665 7.9999L13.8537 13.1459C13.9001 13.1924 13.937 13.2476 13.9622 13.3083C13.9873 13.3691 14.0003 13.4342 14.0003 13.4999C14.0003 13.5656 13.9873 13.6307 13.9622 13.6915C13.937 13.7522 13.9001 13.8074 13.8537 13.8539C13.8072 13.9004 13.752 13.9373 13.6912 13.9624C13.6305 13.9876 13.5654 14.0005 13.4997 14.0005C13.4339 14.0005 13.3688 13.9876 13.3081 13.9624C13.2473 13.9373 13.1921 13.9004 13.1457 13.8539L7.99965 8.7069L2.85366 13.8539C2.80717 13.9004 2.75198 13.9373 2.69124 13.9624C2.6305 13.9876 2.5654 14.0005 2.49966 14.0005C2.43391 14.0005 2.36881 13.9876 2.30807 13.9624C2.24733 13.9373 2.19214 13.9004 2.14565 13.8539C2.09917 13.8074 2.06229 13.7522 2.03713 13.6915C2.01197 13.6307 1.99902 13.5656 1.99902 13.4999C1.99902 13.4342 2.01197 13.3691 2.03713 13.3083C2.06229 13.2476 2.09917 13.1924 2.14565 13.1459L7.29265 7.9999L2.14565 2.8539Z" fill="white"/>
</svg>
